<?xml version="1.0" standalone="no"?>
<!DOCTYPE svg PUBLIC "-//W3C//DTD SVG 20010904//EN"
 "http://www.w3.org/TR/2001/REC-SVG-20010904/DTD/svg10.dtd">
<svg version="1.0" xmlns="http://www.w3.org/2000/svg"
 width="1024.000000pt" height="1024.000000pt" viewBox="0 0 1024.000000 1024.000000"
 preserveAspectRatio="xMidYMid meet">
<g transform="translate(0.000000,1024.000000) scale(0.100000,-0.100000)"
fill="#000000" stroke="none">
<path d="M3965 9240 c-71 -6 -86 -14 -145 -75 -44 -45 -45 -47 -45 -114 0 -62
3 -73 31 -108 52 -64 84 -80 179 -88 l85 -7 0 -599 c0 -562 -1 -600 -17 -605
-201 -65 -542 -247 -769 -409 -189 -135 -438 -370 -571 -537 -132 -167 -335
-493 -419 -676 -120 -258 -201 -528 -252 -837 -24 -144 -26 -186 -27 -420 0
-227 3 -277 23 -395 59 -346 173 -682 325 -965 79 -146 240 -392 334 -510 245
-308 599 -593 987 -795 373 -193 598 -264 1041 -329 439 -65 938 -19 1380 127
635 210 1219 651 1597 1207 259 381 432 798 497 1195 35 215 41 289 41 486 0
230 -11 351 -51 544 -83 409 -210 717 -444 1080 -167 259 -331 449 -570 662
-240 214 -663 463 -950 559 -22 7 -42 15 -44 16 -3 2 -6 275 -9 608 l-4 605
73 0 c90 0 142 22 187 76 40 48 56 95 48 138 -8 44 -57 109 -104 141 l-38 25
-1154 2 c-635 2 -1182 1 -1215 -2z m2345 -150 c27 -27 25 -46 -8 -79 l-27 -28
-1150 1 c-860 1 -1155 4 -1170 13 -12 6 -27 23 -35 38 -20 37 5 58 78 66 31 3
560 7 1175 8 1105 1 1117 1 1137 -19z m-307 -236 l27 -6 0 -532 c0 -293 3
-587 6 -653 l7 -120 84 -26 c46 -15 157 -62 246 -105 635 -308 1048 -698 1384
-1307 202 -366 327 -834 340 -1270 8 -284 -26 -536 -112 -823 -71 -237 -172
-462 -311 -693 -187 -311 -452 -604 -749 -830 -188 -143 -271 -196 -444 -283
-403 -204 -740 -297 -1182 -326 -409 -28 -950 66 -1315 228 -604 268 -1051
643 -1372 1153 -227 359 -377 762 -439 1176 -25 168 -25 517 0 668 63 372 139
620 271 885 268 532 541 856 984 1167 190 133 484 288 692 363 36 13 71 28 78
33 9 7 12 150 12 653 l0 643 58 3 c113 6 1708 8 1735 2z"/>
<path d="M4362 8712 c-9 -7 -12 -89 -10 -377 l3 -369 42 -4 c25 -2 44 1 49 9
11 18 12 722 1 737 -11 13 -65 16 -85 4z"/>
<path d="M5010 7757 c-58 -111 -197 -361 -308 -557 -112 -195 -256 -449 -320
-565 -131 -239 -159 -285 -171 -285 -12 0 -282 412 -320 488 -17 34 -35 62
-39 62 -9 0 -67 -95 -177 -290 -130 -231 -416 -710 -424 -710 -10 0 -181 229
-199 267 -9 18 -21 33 -28 33 -13 0 -54 -64 -181 -280 -44 -74 -150 -250 -235
-390 -299 -493 -330 -545 -351 -585 -14 -29 -21 -66 -24 -130 l-5 -90 122 -79
c153 -99 288 -180 363 -218 31 -16 57 -33 57 -38 0 -37 -47 -244 -75 -325 -86
-260 -96 -310 -74 -374 24 -68 38 -32 84 210 21 106 41 202 45 213 25 61 0
-313 -31 -463 -10 -51 -19 -119 -19 -151 0 -64 -9 -120 -19 -120 -8 0 -19 27
-76 190 -24 69 -55 154 -70 190 -14 36 -55 164 -91 285 -117 396 -200 635
-221 635 -12 0 7 -142 38 -278 99 -447 219 -773 360 -975 26 -38 51 -81 54
-98 4 -16 10 -31 15 -34 5 -3 46 23 92 58 46 34 121 88 168 118 47 31 124 87
172 125 85 68 182 142 262 199 38 27 -63 -72 -199 -196 -136 -123 -417 -339
-442 -339 -7 0 -13 -4 -13 -8 0 -23 227 -310 292 -370 l25 -23 15 23 c30 46
77 147 157 338 45 107 103 240 128 295 25 55 65 145 88 200 55 130 83 185 95
185 18 0 10 -84 -14 -150 -13 -36 -37 -93 -54 -127 -18 -34 -61 -133 -96 -220
-90 -220 -114 -277 -190 -446 l-67 -148 20 -27 c36 -49 249 -234 288 -249 7
-3 54 26 105 65 51 38 120 84 153 103 169 94 570 379 763 542 45 38 86 66 90
63 4 -4 7 -292 7 -639 l0 -632 25 -12 c46 -23 102 -16 161 21 30 18 97 59 149
91 94 56 219 139 455 300 66 45 145 96 176 113 31 18 96 62 145 98 49 37 100
71 114 78 74 32 771 500 1019 685 63 46 135 96 160 110 48 26 185 121 326 225
46 34 154 111 241 171 86 61 191 137 233 170 42 33 111 87 154 119 43 33 82
68 86 80 5 12 11 73 15 136 3 63 11 174 16 245 5 72 9 168 10 216 l0 85 -66
115 c-36 62 -84 146 -107 184 -38 67 -93 156 -277 455 -153 247 -246 404 -289
488 -24 45 -46 82 -50 82 -7 0 -45 -49 -140 -182 -34 -49 -65 -88 -69 -88 -5
0 -40 53 -80 118 -40 64 -87 142 -106 172 -209 340 -351 579 -384 645 -23 44
-47 89 -55 99 -17 23 -8 36 -166 -229 -162 -272 -230 -380 -241 -380 -5 0 -29
34 -53 75 -24 41 -77 131 -117 200 -40 69 -113 195 -163 280 -49 85 -104 180
-122 210 -18 30 -63 109 -100 175 -38 66 -97 170 -133 230 -36 61 -92 161
-123 224 -32 62 -59 115 -61 116 -2 2 -51 -87 -108 -198z m60 -1226 c-22 -44
-80 -180 -129 -303 -124 -308 -223 -545 -251 -598 -12 -24 -37 -78 -56 -120
-68 -156 -101 -227 -130 -277 l-29 -52 -44 42 -45 42 41 -50 c38 -47 40 -52
29 -80 l-13 -30 -92 93 c-125 124 -156 138 -51 21 47 -51 95 -104 106 -117 22
-24 22 -62 0 -62 -14 0 -202 174 -216 200 -7 13 2 40 40 111 146 278 442 886
447 917 l6 37 -31 -29 -31 -29 -123 7 c-148 8 -218 16 -218 25 0 4 43 83 96
177 52 93 118 210 146 259 73 130 159 279 256 445 104 178 298 536 315 581 10
28 12 -73 15 -549 l2 -582 -40 -79z m1319 28 l-1 -361 29 -31 c40 -42 78 -97
87 -122 5 -17 2 -16 -15 5 -35 41 -120 130 -125 130 -2 0 -4 -9 -4 -20 0 -11
34 -57 75 -101 41 -45 75 -86 75 -91 0 -5 -28 16 -62 47 -74 67 -106 90 -115
81 -3 -3 17 -27 45 -52 28 -26 49 -50 47 -54 -2 -4 7 -18 20 -30 14 -13 25
-30 25 -37 0 -8 5 -11 10 -8 6 3 10 -1 10 -10 0 -25 -41 6 -141 108 -37 37
-46 42 -42 25 10 -37 91 -126 157 -170 64 -44 172 -139 215 -192 28 -33 -149
113 -186 154 -13 14 -23 19 -23 13 0 -18 117 -140 178 -185 48 -36 68 -68 41
-68 -6 0 -9 7 -5 15 3 10 -8 20 -38 33 -23 11 -58 38 -77 62 -19 23 -51 62
-71 86 -21 25 -43 54 -49 65 -6 11 -16 18 -22 16 -16 -6 -101 63 -138 110 -83
109 -127 174 -185 271 -35 59 -64 111 -64 115 0 5 20 36 44 70 24 34 53 80 64
102 11 22 65 108 120 190 54 83 102 160 106 173 4 12 10 22 12 22 3 0 4 -162
3 -361z m-2541 -204 l-4 -331 -39 -69 c-21 -39 -51 -88 -67 -109 -30 -41 -37
-86 -15 -86 20 0 41 27 80 105 l35 70 6 -65 c3 -36 7 -191 10 -345 l4 -280
-22 29 c-11 16 -50 65 -86 108 -36 44 -95 122 -131 174 -37 53 -72 101 -78
107 -14 14 -44 -18 -113 -118 -61 -88 -92 -122 -203 -220 -55 -48 -196 -183
-314 -299 -145 -143 -206 -198 -191 -171 13 22 69 114 125 205 127 207 275
450 392 645 49 83 169 281 266 442 97 160 205 345 241 410 36 65 73 132 82
148 l18 30 4 -25 c2 -14 2 -174 0 -355z m1456 -115 c24 -47 67 -136 95 -198
l53 -112 -115 -123 c-63 -67 -128 -138 -145 -157 l-31 -35 0 335 c1 184 3 379
6 433 l5 99 44 -79 c24 -43 64 -116 88 -163z m-205 -75 c-5 -143 -9 -341 -8
-440 l2 -180 -184 -187 c-101 -103 -189 -195 -195 -205 -19 -30 -33 -26 -86
25 l-52 50 91 189 c120 246 142 295 224 503 78 195 211 511 214 507 1 -1 -2
-119 -6 -262z m2111 -370 l0 -323 -36 -44 c-66 -78 -153 -196 -165 -222 l-12
-25 -36 31 c-20 17 -86 80 -148 140 l-112 110 77 87 c43 47 109 131 146 186
38 55 110 154 159 220 50 66 95 132 101 147 5 15 14 25 18 22 4 -3 8 -151 8
-329z m-1504 238 c-19 -38 -60 -126 -90 -198 -30 -71 -86 -199 -125 -283 -39
-84 -71 -154 -71 -157 0 -2 -37 -82 -81 -177 -45 -95 -104 -225 -131 -288 -27
-63 -54 -120 -60 -127 -6 -7 -70 -42 -142 -77 -135 -67 -390 -199 -580 -300
-355 -191 -530 -278 -631 -315 l-60 -21 26 22 c14 13 57 48 95 79 64 52 1040
1023 1378 1371 82 84 192 207 244 273 110 137 255 291 260 276 2 -6 -12 -41
-32 -78z m349 -99 c39 -38 138 -130 219 -204 82 -74 274 -254 426 -400 428
-411 478 -456 690 -610 63 -47 153 -114 200 -151 47 -36 120 -88 162 -115 42
-27 107 -69 143 -94 59 -40 64 -46 43 -51 -41 -10 -81 2 -151 47 -37 24 -72
44 -78 44 -5 0 -31 11 -57 24 -26 13 -157 58 -292 101 -465 145 -924 304 -946
328 -7 7 -20 37 -29 67 -10 30 -42 109 -73 175 -71 155 -144 333 -191 465 -45
125 -113 292 -170 414 -23 49 -41 91 -41 94 0 5 53 -43 145 -134z m-3042 -91
c-6 -332 -7 -343 -35 -403 -14 -30 -77 -134 -140 -230 -113 -172 -183 -284
-280 -447 -27 -45 -53 -85 -59 -89 -6 -3 -50 20 -98 52 -49 33 -96 64 -106 69
-16 10 -14 18 30 95 52 94 106 181 265 435 123 195 362 598 393 662 12 24 24
43 27 43 4 0 5 -84 3 -187z m2766 131 c-8 -33 -14 -316 -18 -881 l-6 -832 -44
-38 c-59 -51 -170 -129 -347 -243 -219 -141 -445 -290 -569 -375 -198 -136
-189 -145 -79 82 155 321 270 566 391 833 36 80 103 226 148 325 138 299 223
489 325 725 138 319 202 461 206 457 2 -2 -1 -26 -7 -53z m111 -87 c30 -85 48
-128 150 -362 28 -66 65 -156 81 -200 17 -44 54 -134 84 -200 29 -66 71 -165
93 -220 22 -55 84 -199 137 -320 53 -121 150 -345 215 -497 66 -152 142 -322
170 -378 l51 -101 -108 55 c-59 31 -135 73 -168 94 -60 40 -153 97 -365 225
-63 38 -177 110 -252 161 l-138 91 1 885 c0 571 3 879 9 869 6 -10 23 -55 40
-102z m-1937 -76 c65 -102 84 -130 201 -290 l54 -74 -101 -198 c-56 -110 -104
-199 -107 -199 -3 0 -28 34 -55 75 l-48 74 -2 318 c-1 271 -3 325 -18 368 -19
58 -21 78 -4 51 7 -10 43 -66 80 -125z m2634 66 c16 -24 33 -55 37 -70 6 -24
2 -22 -35 18 -37 40 -60 95 -40 95 4 0 21 -19 38 -43z m-197 -53 c10 -19 16
-34 12 -34 -11 0 -72 77 -72 91 0 17 36 -17 60 -57z m58 -31 c11 -48 39 -85
100 -134 60 -47 107 -108 95 -120 -7 -7 -39 19 -99 81 -101 104 -106 112 -109
154 -1 17 -5 42 -10 56 -5 17 -4 22 3 15 6 -5 15 -29 20 -52z m-2933 -1003 c0
-396 -3 -720 -7 -720 -4 0 -74 40 -155 88 -216 129 -412 242 -422 242 -5 0
-14 7 -21 15 -11 13 -9 23 6 58 34 76 180 323 226 383 53 70 167 268 215 374
19 41 39 87 46 101 20 42 102 179 107 179 3 0 5 -324 5 -720z m3802 516 c39
-41 101 -121 139 -178 37 -57 110 -150 162 -208 51 -58 107 -127 124 -155 29
-49 29 -49 -54 33 -45 46 -128 124 -183 175 -55 51 -147 140 -205 200 -58 59
-108 107 -112 107 -14 0 -8 -35 9 -59 17 -25 35 -101 23 -101 -3 0 -27 21 -53
47 -28 28 -47 41 -47 32 0 -9 18 -30 40 -48 50 -40 72 -73 64 -94 -5 -13 -16
-7 -56 33 -47 47 -68 60 -68 43 0 -5 25 -30 55 -56 39 -34 55 -55 55 -73 l0
-25 -25 19 c-13 10 -49 42 -80 70 l-56 51 34 53 c19 29 48 76 66 105 18 28 39
57 47 63 12 10 14 8 14 -14 0 -20 14 -40 51 -74 29 -26 70 -67 93 -90 52 -56
173 -162 161 -142 -8 14 -63 79 -203 243 -57 66 -89 117 -73 117 5 0 40 -33
78 -74z m-4008 -62 c-45 -83 -105 -175 -178 -273 -34 -46 -80 -116 -103 -155
-48 -83 -199 -340 -202 -343 -4 -5 -221 127 -224 136 -1 4 37 43 85 87 48 43
214 202 367 354 154 151 281 270 283 264 2 -6 -11 -38 -28 -70z m389 -222 c40
-97 103 -253 139 -347 36 -93 76 -191 89 -217 13 -26 24 -51 24 -56 0 -4 -53
-54 -117 -109 -65 -56 -143 -127 -173 -157 -30 -31 -58 -56 -62 -56 -4 0 -7
248 -7 551 0 303 -3 567 -6 587 l-6 37 23 -28 c12 -15 56 -108 96 -205z m620
47 c95 -95 154 -169 148 -186 -5 -13 -30 6 -112 88 -152 150 -207 216 -200
236 7 17 16 9 164 -138z m300 91 c39 -44 42 -50 30 -69 -19 -31 -31 -26 -72
26 -39 50 -43 62 -24 81 17 17 18 16 66 -38z m2941 -297 c163 -164 306 -314
317 -333 23 -39 -9 -10 -385 355 -237 231 -276 275 -240 275 6 0 144 -134 308
-297z m-3352 210 c32 -38 60 -70 63 -73 3 -3 29 -34 58 -68 48 -58 72 -106 60
-118 -3 -2 -32 24 -65 58 -32 35 -94 100 -137 145 -62 65 -77 86 -71 102 11
34 30 24 92 -46z m351 12 c36 -38 41 -48 32 -65 -10 -19 -12 -19 -35 -4 -33
21 -67 78 -59 98 9 23 15 21 62 -29z m-392 -112 c139 -152 175 -195 172 -205
-6 -18 -23 -4 -150 128 -88 92 -126 138 -122 148 3 9 9 16 13 16 4 0 43 -39
87 -87z m3358 -187 c127 -126 206 -209 176 -184 -30 25 -86 69 -124 97 -39 29
-125 106 -193 170 -98 93 -124 123 -129 151 l-7 35 23 -20 c13 -11 128 -123
254 -249z m-3019 214 c28 -29 36 -43 28 -51 -14 -14 -38 -1 -77 39 -27 29 -28
52 -2 52 6 0 30 -18 51 -40z m2151 -340 c87 -28 256 -84 374 -125 118 -41 269
-91 334 -111 66 -19 140 -45 165 -56 120 -53 209 -101 245 -131 l39 -33 -64
-34 c-89 -47 -323 -206 -574 -389 -177 -130 -205 -146 -220 -130 -38 38 -111
198 -411 899 -29 69 -58 133 -64 143 -15 25 -2 23 176 -33z m-1581 -27 c-21
-60 -43 -109 -107 -243 -33 -69 -97 -204 -143 -300 -124 -264 -294 -600 -303
-600 -5 0 -26 13 -48 28 -21 16 -79 50 -128 77 -49 26 -112 61 -140 77 -79 47
-495 268 -504 268 -5 0 -17 6 -27 14 -17 12 -5 18 115 65 74 29 170 71 214 93
246 125 945 492 1036 543 43 25 51 20 35 -22z m-2040 -399 c94 -55 230 -136
303 -179 73 -43 135 -81 137 -85 3 -4 -26 -26 -63 -49 -37 -23 -107 -72 -157
-111 -121 -94 -384 -292 -415 -313 -34 -24 -45 -21 -48 11 -3 38 16 313 33
463 8 69 15 160 15 201 0 85 10 170 19 166 3 -2 83 -48 176 -104z m2674 -232
c-18 -37 -54 -103 -80 -147 -55 -92 -75 -158 -53 -176 21 -17 17 -29 -9 -29
-35 0 -52 -25 -111 -161 -29 -68 -84 -185 -123 -260 -39 -74 -72 -141 -75
-149 -3 -11 -21 -5 -74 27 -92 55 -283 157 -422 227 -62 31 -112 62 -110 68 2
6 72 54 156 107 146 92 804 529 887 588 l40 29 3 -29 c2 -18 -9 -54 -29 -95z
m242 48 c45 -33 114 -79 153 -102 39 -22 105 -61 146 -86 160 -96 536 -322
554 -333 19 -11 18 -12 -10 -27 -47 -24 -281 -181 -386 -258 -87 -65 -135 -92
-142 -82 -5 6 -127 298 -140 335 -49 136 -111 282 -220 516 -25 53 -43 97 -41
97 3 0 41 -27 86 -60z m-196 -1248 l-6 -24 -37 23 c-20 12 -86 50 -147 84 -60
34 -128 73 -151 87 -22 14 -49 28 -60 30 -15 3 -19 12 -18 40 1 32 17 69 87
203 56 107 167 345 173 370 4 17 17 50 29 75 12 25 34 77 49 115 15 39 39 95
54 125 l27 55 3 -580 c1 -319 0 -590 -3 -603z m133 1058 c23 -52 65 -160 95
-240 30 -80 82 -206 115 -281 53 -118 97 -239 89 -244 -42 -26 -219 -151 -267
-189 -36 -29 -69 -55 -75 -58 -7 -4 -9 180 -7 545 1 304 2 556 2 561 0 17 8 2
48 -94z m-2208 0 c30 -20 129 -78 220 -127 326 -179 573 -323 584 -342 4 -5
-15 -24 -41 -42 -48 -33 -246 -178 -315 -231 l-37 -28 -27 47 c-65 116 -117
209 -200 358 -84 154 -175 299 -199 320 -7 6 -29 32 -51 59 -44 56 -35 54 66
-14z m-35 -90 c28 -81 116 -253 214 -420 34 -58 86 -153 116 -211 l54 -107
-107 -70 c-59 -38 -125 -80 -146 -93 -22 -12 -76 -51 -121 -84 l-82 -62 -1
406 c-1 418 8 579 21 363 11 -181 32 -282 58 -267 21 14 19 94 -6 205 -14 63
-29 143 -32 177 -3 34 -9 60 -13 58 -11 -7 -19 87 -13 150 7 71 20 61 58 -45z
m1455 -722 c85 -47 190 -105 232 -129 43 -24 134 -75 203 -113 69 -38 125 -72
125 -75 0 -3 -30 -19 -65 -35 -127 -56 -315 -185 -432 -294 l-33 -31 -24 42
c-13 23 -105 202 -204 397 -98 195 -198 386 -221 425 -22 38 -41 73 -41 77 0
4 69 -34 153 -85 83 -52 222 -132 307 -179z m-345 -133 c70 -138 165 -325 211
-418 47 -92 83 -171 80 -176 -4 -5 -39 -31 -79 -58 -39 -27 -129 -89 -199
-136 -70 -48 -131 -87 -137 -87 -8 0 -11 140 -11 458 0 251 -3 509 -6 572 -5
82 -3 112 4 105 6 -6 68 -123 137 -260z"/>
<path d="M4846 7059 c-15 -23 -30 -56 -33 -75 -5 -30 -3 -35 31 -50 19 -10 37
-16 39 -13 2 2 20 34 40 72 l37 67 -33 20 c-44 27 -51 26 -81 -21z"/>
<path d="M4556 6508 c-22 -31 -20 -61 4 -83 20 -18 21 -18 35 1 24 33 27 65 9
85 -22 24 -29 24 -48 -3z"/>
<path d="M6160 6471 c-15 -29 -12 -41 13 -50 45 -18 60 30 17 57 -16 10 -21 9
-30 -7z"/>
<path d="M6340 6036 c0 -3 15 -15 33 -27 23 -17 28 -18 18 -6 -14 18 -51 42
-51 33z"/>
<path d="M6316 5955 c4 -8 11 -15 16 -15 6 0 5 6 -2 15 -7 8 -14 15 -16 15 -2
0 -1 -7 2 -15z"/>
<path d="M4689 4824 c-39 -53 -40 -56 -22 -69 37 -29 72 -16 110 41 13 20 13
29 3 54 -19 45 -44 38 -91 -26z"/>
<path d="M4589 4732 c-42 -21 -51 -62 -18 -85 12 -9 27 -13 34 -11 26 10 47
95 27 108 -5 3 -24 -3 -43 -12z"/>
<path d="M5506 5013 c-21 -63 -20 -80 7 -87 17 -5 28 1 49 26 15 17 32 44 37
60 8 23 7 30 -9 38 -10 5 -30 10 -43 10 -21 0 -28 -8 -41 -47z"/>
<path d="M5430 4830 c-28 -27 -50 -56 -50 -64 0 -17 49 -58 64 -53 23 8 48 57
55 110 10 73 -3 74 -69 7z"/>
<path d="M3274 4730 c-21 -8 -71 -66 -93 -107 -9 -19 -8 -24 11 -37 36 -25 53
-19 102 35 50 55 59 92 27 109 -22 11 -19 11 -47 0z"/>
<path d="M4357 7924 c-12 -12 -8 -109 5 -122 16 -16 63 -15 77 2 7 8 11 37 9
68 l-3 53 -40 3 c-23 2 -44 0 -48 -4z"/>
<path d="M6799 6969 c-26 -37 -20 -52 32 -87 57 -39 298 -272 366 -354 37 -45
73 -78 83 -78 10 0 28 8 41 19 l23 19 -27 42 c-53 78 -458 470 -487 470 -5 0
-19 -14 -31 -31z"/>
<path d="M3245 6802 c-62 -30 -287 -273 -323 -349 -16 -33 -16 -36 3 -49 41
-30 60 -17 135 95 24 36 75 99 115 140 71 75 86 95 105 145 12 32 3 36 -35 18z"/>
<path d="M7882 4116 c-29 -23 -149 -112 -268 -197 -118 -85 -271 -195 -338
-245 -68 -50 -159 -113 -201 -139 -75 -47 -77 -49 -58 -65 19 -15 70 -46 363
-218 l105 -62 17 22 c67 88 235 399 302 560 45 108 140 378 134 383 -2 2 -27
-16 -56 -39z"/>
<path d="M6803 3370 c-92 -79 -304 -235 -453 -333 -30 -20 -91 -62 -135 -93
-44 -31 -146 -101 -227 -156 -82 -54 -148 -100 -148 -102 0 -2 53 -35 118 -74
328 -194 481 -284 488 -286 3 0 42 89 86 199 87 216 107 267 192 480 113 282
156 393 156 404 0 21 -19 11 -77 -39z"/>
<path d="M7025 3355 c14 -30 42 -90 64 -133 22 -44 58 -123 81 -178 23 -54 48
-110 56 -122 15 -23 16 -23 36 -5 11 10 52 57 90 106 38 48 75 87 81 87 24 0
-46 57 -168 137 -71 47 -156 103 -188 124 -32 22 -62 39 -67 39 -5 0 2 -25 15
-55z"/>
<path d="M6916 3328 c-10 -24 -48 -126 -86 -228 -58 -157 -169 -435 -274 -687
-14 -35 -26 -65 -26 -68 0 -3 46 23 103 58 145 89 300 207 447 342 31 27 63
55 73 60 22 13 18 28 -70 265 -66 179 -103 258 -133 285 -15 14 -18 12 -34
-27z"/>
<path d="M4458 3123 c-41 -73 -117 -246 -169 -388 -22 -60 -55 -144 -73 -185
-18 -41 -36 -88 -40 -103 -9 -36 -13 -34 -121 49 -169 130 -296 185 -357 154
-25 -13 -218 -150 -218 -155 0 -5 156 -103 220 -138 235 -127 467 -225 627
-263 125 -29 148 -31 112 -6 -48 31 -132 130 -164 192 -16 30 -16 42 -6 100
19 103 77 288 130 417 27 65 58 152 69 194 21 81 38 189 29 189 -3 0 -20 -26
-39 -57z m-544 -595 c34 -24 101 -69 147 -102 l85 -58 -4 -92 c-2 -50 -6 -93
-8 -95 -12 -13 -80 15 -112 47 -31 32 -183 309 -182 335 0 12 9 8 74 -35z"/>
<path d="M5685 2606 c-22 -18 -85 -64 -140 -101 -55 -38 -147 -101 -205 -140
-146 -100 -295 -199 -432 -289 -113 -74 -133 -92 -105 -94 144 -11 426 -12
527 -3 145 13 324 39 390 55 l45 11 -1 135 c-3 471 -3 460 -21 460 -10 0 -36
-15 -58 -34z"/>
<path d="M5814 2543 c3 -49 7 -177 8 -286 l2 -198 31 7 c136 29 535 178 535
200 0 7 -44 39 -97 72 -54 33 -129 78 -168 102 -38 23 -122 76 -186 116 -64
41 -119 74 -124 74 -4 0 -5 -39 -1 -87z"/>
<path d="M6974 7772 c-6 -4 -17 -18 -23 -31 -11 -19 -10 -26 3 -39 23 -23 71
-5 71 27 0 26 -34 54 -51 43z"/>
<path d="M4620 1232 c0 -7 -7 -15 -15 -18 -8 -4 -15 -13 -15 -21 0 -8 -5 -11
-10 -8 -6 4 -8 11 -5 16 4 5 1 9 -4 9 -6 0 -11 -7 -11 -15 0 -8 -4 -15 -10
-15 -5 0 -7 7 -4 15 4 9 -1 18 -11 21 -13 5 -14 9 -3 15 9 6 9 9 1 9 -16 0
-28 -21 -16 -29 12 -7 13 -42 1 -35 -5 3 -6 10 -3 15 4 5 -1 9 -11 9 -11 0
-15 6 -11 20 3 11 1 20 -4 20 -15 0 -10 -42 8 -62 16 -18 16 -18 0 -12 -9 3
-17 10 -17 15 0 5 -11 14 -25 19 -16 6 -23 14 -19 25 3 8 1 15 -5 15 -6 0 -11
-7 -11 -15 0 -9 -7 -18 -15 -21 -12 -5 -13 -10 -4 -20 8 -9 8 -14 1 -14 -6 0
-13 8 -16 18 -4 9 -23 25 -44 35 l-37 19 38 -35 c20 -19 37 -38 37 -41 0 -8
-73 45 -78 57 -2 4 -13 7 -23 7 -11 0 -17 -4 -14 -10 3 -5 1 -10 -4 -10 -6 0
-11 4 -11 8 0 4 -9 8 -20 8 -11 0 -20 -6 -20 -13 0 -15 -19 -27 -28 -18 -3 3
0 10 7 14 9 6 10 11 2 15 -6 4 -11 2 -11 -5 0 -8 -4 -8 -15 1 -20 17 -19 1 2
-22 9 -10 13 -21 10 -24 -3 -4 -17 6 -31 21 -15 17 -26 22 -26 14 1 -18 50
-78 50 -61 0 23 16 12 30 -20 7 -18 16 -37 18 -43 3 -5 -7 3 -21 19 -13 16
-30 25 -36 22 -6 -4 -11 -3 -11 3 0 5 -11 22 -25 37 -16 17 -23 34 -19 46 3
10 1 18 -5 18 -6 0 -11 -7 -11 -15 0 -8 -4 -15 -10 -15 -5 0 -10 5 -10 10 0
14 -33 13 -48 -2 -7 -7 -12 -8 -12 -2 0 5 -9 10 -20 11 -11 1 -18 -2 -15 -8 4
-5 13 -9 21 -9 8 0 14 -4 14 -10 0 -5 -9 -10 -20 -10 -11 0 -20 3 -20 8 0 4
-9 13 -20 20 -17 10 -20 10 -20 -2 0 -8 9 -18 20 -21 24 -8 27 -25 4 -25 -18
0 -44 23 -44 39 0 13 -17 14 -25 2 -3 -5 5 -17 17 -25 l22 -16 -22 0 c-13 0
-22 6 -22 15 0 18 -17 20 -23 3 -3 -9 -13 -5 -31 11 -14 14 -26 20 -26 14 0
-15 34 -43 52 -43 9 0 19 -7 22 -15 4 -12 10 -14 25 -5 25 13 31 13 31 0 0 -5
-7 -10 -15 -10 -9 0 -18 -7 -21 -15 -7 -18 -24 -20 -24 -2 -1 14 -49 52 -57
44 -8 -9 7 -28 18 -22 5 4 9 -1 9 -9 0 -19 -21 -21 -38 -4 -6 6 -15 8 -19 4
-4 -4 -1 -11 6 -16 9 -5 11 -14 6 -26 -8 -18 -8 -18 -12 -1 -3 9 -13 17 -24
17 -10 0 -18 4 -16 8 1 5 -17 27 -40 51 -24 23 -43 36 -43 28 0 -18 34 -57 49
-57 6 0 11 -5 11 -10 0 -6 11 -21 25 -34 26 -24 33 -46 15 -46 -6 0 -13 7 -16
15 -4 8 -12 15 -20 15 -8 0 -14 7 -14 15 0 8 -7 15 -15 15 -8 0 -15 5 -15 10
0 19 -37 52 -44 41 -7 -11 166 -191 184 -191 5 0 10 -9 10 -20 0 -11 -7 -20
-15 -20 -8 0 -15 -4 -15 -10 0 -15 30 1 41 22 9 17 6 25 -21 49 -17 16 -35 29
-41 29 -15 0 -10 30 6 36 8 4 15 12 15 20 0 22 14 17 46 -17 16 -17 37 -38 47
-47 20 -20 22 -32 4 -32 -8 0 -19 11 -25 25 -6 14 -18 25 -27 25 -8 0 -15 7
-15 15 0 8 -7 15 -15 15 -8 0 -15 -7 -15 -15 0 -8 7 -15 15 -15 8 0 15 -7 15
-15 0 -8 5 -15 11 -15 7 0 20 -9 30 -21 17 -19 19 -20 43 -4 24 16 26 16 26 1
0 -9 5 -16 10 -16 6 0 10 -7 10 -15 0 -8 7 -15 15 -15 20 0 19 5 -10 36 -26
28 -33 54 -15 54 6 0 10 7 10 15 0 22 -21 18 -27 -5 -5 -20 -23 -28 -23 -11 0
16 -59 73 -70 66 -16 -10 -12 11 6 25 13 11 16 10 21 -8 3 -12 12 -22 19 -22
8 0 14 -7 14 -15 0 -8 9 -15 20 -15 11 0 20 7 20 15 0 8 5 15 10 15 6 0 10 -7
10 -15 0 -8 6 -15 14 -15 19 0 80 -64 65 -69 -6 -2 -15 2 -19 9 -7 11 -12 10
-24 -3 -9 -9 -12 -18 -7 -22 5 -3 12 -1 16 5 11 17 23 2 19 -23 -4 -21 -4 -21
5 -1 11 24 60 59 69 48 4 -4 1 -9 -5 -11 -15 -5 -17 -33 -3 -33 6 0 10 6 10
14 0 8 14 17 30 21 17 4 30 11 30 16 0 6 5 7 11 4 6 -5 2 -13 -13 -23 -35 -24
-81 -72 -75 -78 3 -3 20 9 38 27 28 27 34 30 37 16 2 -9 8 -17 13 -17 6 0 8 8
5 18 -5 15 24 62 38 62 11 0 6 -19 -10 -35 -9 -9 -13 -19 -9 -23 4 -4 15 4 26
17 16 19 20 21 25 7 7 -19 31 -21 36 -4 3 7 12 5 26 -8 24 -20 28 -34 11 -34
-12 0 -39 -25 -39 -36 0 -4 8 0 19 10 16 15 19 15 31 1 7 -8 17 -15 22 -15 5
0 2 8 -8 17 -12 12 -13 18 -4 21 7 3 16 -2 21 -9 4 -7 11 -10 15 -7 3 4 -12
25 -36 48 -23 22 -37 40 -32 40 6 0 27 -16 48 -35 20 -19 41 -35 45 -35 18 0
8 15 -21 35 -34 23 -37 30 -14 39 12 4 15 2 11 -9 -10 -25 13 -28 34 -4 10 12
19 17 19 11 0 -6 -7 -17 -15 -26 -9 -9 -11 -17 -5 -21 13 -8 32 4 25 16 -4 5
-2 9 4 9 23 0 21 -23 -4 -44 -18 -15 -23 -26 -16 -30 6 -4 14 0 17 8 8 20 24
21 24 1 0 -8 -5 -15 -12 -15 -6 0 -9 -2 -6 -5 3 -3 18 1 34 10 16 8 24 15 17
15 -7 0 -10 7 -6 16 3 9 -3 23 -16 35 -11 11 -21 25 -21 32 0 6 10 2 22 -10
20 -21 22 -21 35 -5 13 15 13 15 3 -5 -11 -24 -10 -44 4 -55 6 -4 4 -13 -3
-22 -16 -19 -6 -21 13 -4 11 11 11 17 -1 35 -11 16 -12 23 -4 23 7 0 9 5 6 10
-3 6 -1 10 5 10 7 0 9 -7 6 -16 -5 -12 -2 -15 11 -10 9 4 20 1 25 -6 13 -21 9
-31 -7 -18 -25 21 -17 -5 10 -30 14 -13 25 -19 25 -13 0 5 12 15 27 22 21 10
28 9 34 -1 4 -7 12 -9 16 -4 4 5 2 11 -4 13 -7 3 -13 11 -13 19 0 8 -4 14 -10
14 -5 0 -10 -7 -10 -16 0 -14 -3 -14 -15 -4 -17 14 -21 35 -4 24 6 -3 15 -1
19 6 6 10 15 6 34 -16 l25 -29 16 23 c9 12 20 20 25 17 5 -3 11 -1 15 5 12 20
26 10 15 -11 -11 -20 -11 -20 14 -4 14 10 23 22 19 28 -3 6 -1 7 6 3 6 -4 19
-2 28 6 15 12 15 11 2 -9 -8 -13 -17 -23 -22 -23 -4 0 -6 -4 -3 -8 2 -4 -10
-14 -27 -22 -20 -9 -26 -15 -17 -18 8 -3 16 0 18 7 2 6 9 11 15 11 7 0 26 12
42 28 32 30 34 30 47 10 7 -10 11 -9 22 5 13 17 15 17 29 -4 16 -22 37 -19 37
6 0 8 4 17 10 20 6 3 7 -1 4 -9 -3 -9 -1 -16 5 -16 7 0 14 7 17 15 4 8 10 13
15 10 4 -3 1 -14 -8 -25 -9 -10 -21 -17 -25 -13 -5 3 -16 -3 -24 -13 -14 -18
-14 -18 -29 0 -8 11 -18 17 -21 13 -4 -4 3 -16 16 -27 21 -18 25 -19 39 -6 13
13 16 13 27 -2 7 -9 16 -13 20 -9 5 4 2 12 -6 18 -13 8 -13 11 2 19 9 6 24 17
32 25 16 16 30 20 22 6 -7 -10 24 -25 33 -16 3 3 -1 10 -9 15 -8 6 -10 10 -4
10 18 0 37 -27 24 -35 -5 -3 -10 -12 -10 -18 1 -7 9 -2 19 10 10 12 21 19 25
16 3 -3 12 0 21 7 18 15 20 -1 3 -18 -9 -9 -8 -15 7 -26 17 -12 23 -11 47 7
15 11 28 25 28 30 0 4 9 5 20 2 20 -6 29 9 10 18 -6 3 -5 4 2 3 7 -2 12 -14
11 -27 -3 -23 -2 -23 12 -5 15 20 15 20 29 0 8 -10 18 -16 21 -12 4 4 0 14 -9
23 -18 19 -21 29 -5 19 6 -3 16 0 21 7 7 10 7 7 3 -8 -8 -29 11 -31 20 -2 5
16 10 18 20 9 8 -7 19 -9 25 -5 5 3 10 1 10 -5 0 -7 6 -10 13 -7 6 2 11 11 9
18 -2 9 5 6 20 -6 13 -11 25 -21 27 -22 2 -1 -2 -9 -9 -18 -8 -10 -9 -15 -1
-15 6 0 11 5 11 11 0 5 5 7 11 3 6 -3 22 6 35 21 13 16 24 23 24 18 0 -20 32
-24 46 -6 7 10 13 14 13 8 0 -13 -24 -45 -34 -45 -4 0 -14 8 -21 18 -10 12
-13 13 -14 3 0 -8 -8 -20 -17 -27 -17 -13 -17 -13 0 -14 9 0 17 -4 17 -10 0
-5 5 -10 11 -10 8 0 7 5 -1 15 -7 9 -9 19 -5 23 4 4 10 1 12 -5 3 -7 11 -13
18 -13 7 0 15 -6 18 -12 3 -10 7 -10 20 1 10 7 17 19 16 25 0 7 -2 6 -6 -1 -4
-13 -33 -19 -33 -8 0 3 9 15 19 26 13 14 21 17 26 9 5 -8 11 -6 19 6 9 12 15
14 20 6 10 -17 29 -15 23 2 -4 10 -1 13 9 9 17 -6 18 -20 2 -25 -9 -3 -8 -9 4
-21 20 -21 35 -23 18 -2 -9 10 -9 17 0 27 6 7 17 22 25 33 13 18 14 17 4 -13
-6 -18 -9 -36 -5 -39 3 -4 6 1 6 10 0 9 5 17 10 17 6 0 10 -9 10 -21 0 -11 5
-17 10 -14 14 9 12 21 -7 41 -16 16 -16 16 4 10 15 -5 25 -1 33 11 11 16 11
16 6 1 -3 -10 -9 -26 -13 -35 -6 -16 -5 -16 10 -5 9 8 19 22 22 33 4 10 11 19
17 19 6 0 6 -6 -2 -15 -15 -18 1 -20 18 -3 9 9 12 9 12 0 0 -7 -4 -12 -10 -12
-18 0 -11 -19 11 -31 17 -9 23 -8 30 2 8 12 11 12 18 -1 8 -12 12 -12 29 3 10
9 22 14 25 10 10 -9 8 -23 -2 -20 -5 1 -9 -1 -10 -5 -2 -15 14 -9 24 8 7 12 6
18 -3 21 -6 3 -9 9 -6 15 4 6 0 14 -7 19 -12 8 -12 11 1 19 8 5 20 10 25 10 6
0 3 -5 -5 -10 -12 -7 -12 -12 -2 -22 6 -6 12 -20 12 -30 0 -10 5 -18 11 -18 6
0 8 7 5 16 -4 10 -1 14 6 12 21 -7 22 -38 2 -38 -14 0 -15 -3 -6 -12 10 -10
15 -10 23 2 8 11 12 12 16 3 2 -7 12 -13 21 -13 15 1 15 2 0 14 -10 7 -18 18
-18 25 0 6 -4 11 -10 11 -5 0 -10 6 -10 14 0 15 37 32 47 22 4 -3 -1 -6 -10
-6 -9 0 -17 -6 -17 -13 0 -14 35 -47 49 -47 6 0 13 -9 16 -20 3 -11 11 -20 16
-20 17 0 -24 60 -45 66 -18 6 -18 7 -3 19 9 7 17 17 17 23 0 6 5 14 10 17 6 4
10 3 9 -2 -3 -19 2 -33 12 -33 6 0 9 7 5 15 -3 8 -1 15 4 15 6 0 10 -9 10 -20
0 -11 5 -20 10 -20 6 0 10 5 10 10 0 6 5 10 10 10 6 0 10 -7 10 -16 0 -15 23
-44 34 -44 3 0 -3 16 -14 35 -23 41 -24 45 -10 45 6 0 10 -6 10 -12 1 -18 28
-53 36 -45 6 6 -34 69 -48 75 -4 2 -8 9 -8 15 0 8 4 7 12 -1 17 -17 31 -15 24
3 -10 26 3 17 69 -50 36 -36 69 -65 75 -65 5 0 10 -7 10 -15 0 -8 5 -15 10
-15 19 0 10 19 -19 41 -16 11 -35 32 -42 45 -7 13 -18 24 -26 24 -7 0 -13 6
-13 14 0 8 -6 16 -12 19 -7 2 -10 8 -6 12 4 4 20 -7 36 -25 20 -21 32 -28 37
-20 4 6 -1 17 -11 25 -11 7 -16 16 -12 20 3 4 25 -13 47 -37 23 -24 36 -45 30
-47 -7 -2 -20 7 -30 20 -16 20 -19 21 -19 6 0 -10 13 -26 30 -35 16 -9 35 -27
41 -39 13 -24 29 -31 29 -13 0 6 -3 10 -8 10 -10 0 -35 41 -28 47 3 3 12 0 21
-7 37 -30 10 7 -40 58 -31 30 -54 57 -51 59 6 6 21 -7 83 -67 25 -25 43 -38
39 -30 -3 8 -9 23 -12 32 -3 10 -15 20 -25 23 -20 7 -26 25 -9 25 6 0 10 -4
10 -10 0 -5 6 -7 13 -5 11 5 17 -4 55 -82 9 -18 20 -33 25 -33 5 0 3 7 -4 17
-10 12 -11 17 -2 20 7 2 -1 16 -18 34 -30 31 -37 53 -19 64 14 9 13 25 -2 25
-7 0 -22 12 -34 28 -12 15 -26 24 -30 19 -4 -4 -2 -13 4 -19 15 -15 16 -31 1
-26 -6 2 -11 8 -11 13 0 6 -5 16 -10 23 -8 10 -7 17 4 28 13 13 18 11 49 -18
19 -18 45 -48 58 -66 22 -32 24 -32 42 -16 13 12 16 21 9 28 -12 12 -13 36 -2
36 5 0 14 -16 22 -35 8 -19 17 -35 22 -35 4 0 8 -7 8 -16 0 -8 5 -12 11 -9 12
8 72 -52 65 -64 -3 -5 3 -16 14 -26 11 -10 20 -13 20 -7 0 6 -6 12 -12 15 -7
2 -10 8 -6 12 4 4 21 -7 38 -24 17 -17 37 -31 43 -31 6 0 -9 17 -34 38 -24 20
-59 54 -78 75 -20 20 -41 37 -48 37 -7 0 -13 6 -13 14 0 8 -4 16 -8 18 -4 2
-20 29 -35 61 -15 32 -32 55 -37 52 -6 -3 -10 1 -10 9 0 9 -4 16 -10 16 -5 0
-10 -7 -10 -15 0 -8 -5 -15 -11 -15 -6 0 -9 7 -5 15 4 13 2 14 -14 5 -14 -7
-20 -7 -20 0 0 5 -7 10 -15 10 -19 0 -19 -7 0 -26 8 -9 19 -12 25 -9 6 3 13
-1 16 -9 8 -20 24 -21 24 -1 0 20 13 19 33 -3 21 -23 22 -42 1 -42 -10 0 -14
6 -10 15 6 17 -9 21 -19 5 -3 -6 1 -17 9 -26 9 -8 21 -24 26 -35 8 -15 7 -19
-5 -19 -8 0 -15 6 -15 13 -1 15 -56 77 -70 77 -6 0 -13 7 -17 16 -3 8 -12 13
-20 9 -12 -4 -14 0 -10 16 4 14 2 19 -8 16 -7 -3 -18 0 -24 6 -20 20 -12 -3 9
-25 22 -24 26 -38 10 -38 -5 0 -15 10 -21 22 -11 20 -13 20 -24 5 -19 -26 -43
-21 -41 8 1 27 11 33 19 13 2 -7 8 -9 13 -5 10 9 -16 28 -31 23 -5 -2 -9 -11
-9 -20 1 -9 -3 -16 -9 -16 -5 0 -22 -13 -38 -29 -15 -16 -30 -27 -33 -24 -3 3
-8 -2 -12 -11 -8 -20 -24 -21 -24 0 0 9 -7 14 -17 12 -22 -4 -28 -25 -8 -31
13 -4 13 -5 -1 -3 -9 0 -22 10 -28 21 -6 11 -15 23 -21 27 -5 4 -6 10 -1 15 4
4 12 0 17 -10 11 -19 29 -23 29 -6 0 6 -7 18 -16 27 -15 15 -19 15 -46 -1 -25
-15 -29 -15 -35 -1 -5 13 -7 13 -23 -1 -15 -14 -18 -13 -34 4 -11 12 -14 21
-7 26 13 7 15 25 3 25 -5 0 -16 -15 -25 -32 -10 -20 -15 -24 -11 -10 3 12 1
22 -5 22 -6 0 -11 -4 -11 -10 0 -5 -5 -10 -12 -10 -9 0 -9 3 0 12 15 15 16 38
2 38 -5 0 -9 -3 -8 -7 0 -5 -4 -19 -10 -33 -11 -23 -12 -22 -6 10 6 33 5 34
-10 15 -14 -18 -15 -18 -16 -2 0 9 -5 17 -11 17 -5 0 -7 -4 -4 -10 3 -5 1 -10
-4 -10 -6 0 -11 6 -11 13 0 8 -4 7 -10 -3 -6 -10 -10 -11 -10 -2 0 6 -4 12
-10 12 -5 0 -10 -6 -10 -13 0 -7 -7 -22 -16 -33 -14 -18 -15 -18 -4 4 8 16 8
27 0 40 -11 16 -11 16 -6 0 7 -23 -3 -23 -19 -1 -11 15 -12 14 -12 -9 0 -20 3
-25 15 -20 14 5 15 4 2 -10 -8 -9 -16 -12 -18 -7 -2 5 -8 9 -13 9 -6 0 -7 -5
-4 -10 3 -5 1 -10 -4 -10 -16 0 -13 16 4 30 11 9 12 16 4 26 -18 22 -47 12
-53 -18 -5 -26 -26 -40 -26 -18 0 6 5 10 11 10 6 0 9 8 7 18 -3 13 -14 17 -52
18 -27 1 -43 -1 -36 -6 9 -6 9 -13 -3 -35 -9 -18 -17 -24 -21 -16 -4 6 -2 11
5 11 7 0 9 3 6 6 -4 4 -13 1 -21 -5 -11 -10 -20 -10 -37 -1 -17 9 -23 9 -29 0
-6 -9 -13 -9 -28 -1 -25 13 -43 14 -22 1 8 -5 12 -11 9 -14 -9 -9 -32 12 -25
23 9 14 46 15 46 1 0 -5 9 -1 20 10 22 22 36 25 45 10 9 -14 22 -12 28 3 3 9
-5 13 -27 12 -17 0 -37 4 -45 10 -12 8 -13 6 -8 -7 3 -10 2 -18 -3 -18 -6 0
-10 7 -10 15 0 8 -4 15 -10 15 -5 0 -10 -3 -10 -7 0 -5 -20 -8 -45 -9 -25 0
-45 4 -45 8 0 5 -5 6 -11 2 -8 -4 -4 -13 12 -25 20 -15 22 -20 10 -31 -11 -11
-13 -11 -6 1 4 8 2 17 -6 22 -21 13 -33 11 -20 -5 9 -10 8 -15 -2 -19 -24 -9
-40 8 -22 23 8 7 15 20 14 29 0 10 -2 11 -6 4 -2 -7 -9 -13 -14 -13 -6 0 -8 4
-5 8 2 4 -4 8 -14 8 -10 0 -16 -4 -14 -8 3 -4 1 -8 -5 -8 -5 0 -13 5 -16 10
-3 6 -24 10 -45 10 -29 0 -43 -6 -55 -22 l-17 -23 8 25 c6 23 6 24 -11 10 -11
-8 -16 -10 -12 -4 4 7 -12 11 -48 11 -55 0 -70 -9 -38 -21 9 -4 20 -1 25 6 4
7 8 9 8 3 -1 -12 -25 -45 -33 -45 -4 0 -4 8 -1 18 5 16 5 16 -8 1 -12 -15 -16
-14 -43 12 -19 19 -31 25 -36 18 -4 -8 -9 -8 -13 -1 -4 6 -39 10 -84 9 -63 -2
-80 -6 -94 -22 -10 -11 -17 -15 -18 -8 0 6 6 13 13 16 6 2 9 8 4 12 -4 5 -13
3 -19 -3 -15 -15 -32 -16 -23 -2 3 6 1 10 -5 10 -7 0 -10 -7 -6 -15 3 -8 1
-15 -4 -15 -15 0 -12 -17 4 -23 11 -4 13 -1 9 11 -6 15 -5 15 10 3 9 -7 14
-17 12 -21 -7 -11 -45 -8 -45 3 0 4 -6 5 -12 0 -22 -14 -108 -11 -108 4 0 7 5
13 10 13 6 0 10 -5 10 -12 0 -6 10 -3 22 8 19 17 21 17 15 2 -9 -26 -1 -22 22
11 l20 28 -59 -1 c-42 -1 -60 -5 -60 -14z m216 -41 c-18 -17 -25 -20 -20 -8 3
9 10 17 14 17 5 0 12 10 16 23 5 14 9 17 12 8 2 -7 -8 -25 -22 -40z m80 24
c32 -32 55 -33 26 -2 -17 18 -19 24 -7 24 8 0 15 -6 15 -14 0 -7 5 -13 10 -13
6 0 10 7 10 15 0 18 16 20 26 3 4 -7 3 -8 -4 -4 -7 4 -12 3 -12 -1 0 -5 -6
-17 -13 -27 -11 -15 -17 -16 -40 -5 -15 7 -27 16 -27 21 0 4 -4 8 -10 8 -14 0
-12 -27 3 -33 6 -2 0 -4 -14 -3 -25 1 -25 2 -10 28 9 16 17 28 19 28 2 0 14
-11 28 -25z m245 1 c-6 -7 -8 -16 -4 -19 3 -4 -2 -7 -12 -7 -17 0 -17 1 -2 18
10 10 14 22 10 27 -5 4 -2 5 5 1 9 -6 10 -11 3 -20z m119 -6 c5 0 7 8 4 18 -5
16 -5 16 6 0 6 -10 16 -18 22 -18 6 0 5 7 -3 17 -13 16 -12 16 10 1 13 -9 28
-15 35 -14 6 2 8 1 3 -1 -4 -3 -4 -9 -1 -15 4 -6 -4 -8 -17 -7 -13 2 -30 -1
-38 -5 -10 -7 -12 -5 -6 4 5 8 3 11 -6 8 -14 -5 -38 19 -38 37 0 6 4 2 10 -7
5 -10 14 -18 19 -18z m-600 16 c0 -3 -4 -8 -10 -11 -5 -3 -10 -1 -10 4 0 6 5
11 10 11 6 0 10 -2 10 -4z m808 -10 c-10 -7 -15 -16 -11 -19 3 -4 1 -7 -5 -7
-18 0 -14 18 6 29 24 15 30 13 10 -3z m244 -4 c-7 -2 -12 -10 -12 -18 0 -8 -4
-14 -10 -14 -6 0 -5 10 2 25 6 13 16 21 21 18 8 -5 7 -8 -1 -11z m53 -8 c-8
-9 -13 -20 -10 -25 4 -5 1 -9 -4 -9 -14 0 -14 3 0 34 7 14 16 23 21 20 4 -3 1
-12 -7 -20z m-1468 -30 c-8 -8 -47 29 -40 39 3 4 14 -1 25 -13 11 -12 18 -24
15 -26z m740 24 c16 -18 16 -18 0 -12 -9 3 -17 10 -17 15 0 4 -7 6 -15 3 -8
-4 -15 -2 -15 3 0 16 29 11 47 -9z m126 7 c-3 -9 -8 -14 -10 -11 -3 3 -2 9 2
15 9 16 15 13 8 -4z m67 0 c7 -9 8 -15 2 -15 -5 0 -12 7 -16 15 -3 8 -4 15 -2
15 2 0 9 -7 16 -15z m-1180 -17 c0 -6 7 -8 15 -4 17 6 21 -9 4 -19 -5 -4 -19
1 -30 11 -16 15 -19 15 -19 1 0 -8 5 -17 12 -19 6 -2 9 -12 5 -21 -9 -25 -26
-21 -19 5 4 17 2 20 -11 15 -22 -8 -22 7 -1 32 17 19 44 18 44 -1z m201 -7
c16 -16 29 -35 29 -42 0 -6 -9 0 -21 15 -21 27 -43 33 -54 16 -4 -6 -2 -17 5
-25 7 -9 8 -15 0 -20 -5 -3 -10 1 -10 9 0 9 -4 16 -10 16 -5 0 -10 7 -10 15 0
8 7 15 16 15 10 0 14 6 10 15 -9 24 13 17 45 -14z m351 7 c-7 -7 -12 -8 -12
-2 0 14 12 26 19 19 2 -3 -1 -11 -7 -17z m-182 -21 c0 -5 -4 -5 -10 -2 -5 3
-10 14 -10 23 0 15 2 15 10 2 5 -8 10 -19 10 -23z m560 29 c0 -3 -4 -8 -10
-11 -5 -3 -10 -1 -10 4 0 6 5 11 10 11 6 0 10 -2 10 -4z m914 -8 c-3 -4 -9 -8
-15 -8 -5 0 -9 4 -9 8 0 5 7 9 15 9 8 0 12 -4 9 -9z m-1450 -14 c3 -8 2 -12
-4 -9 -6 3 -10 10 -10 16 0 14 7 11 14 -7z m-194 -34 c4 0 10 -10 13 -22 5
-20 3 -20 -18 6 -13 17 -21 35 -17 40 4 7 8 4 10 -6 2 -10 7 -18 12 -18z
m-266 8 c21 -22 27 -48 11 -48 -8 0 -15 6 -15 14 0 8 -7 16 -15 20 -17 6 -20
26 -4 26 6 0 16 -6 23 -12z m132 -35 c-7 -7 -36 23 -36 38 0 7 9 3 21 -10 12
-12 19 -25 15 -28z m1924 32 c11 -13 10 -14 -4 -9 -9 3 -16 10 -16 15 0 13 6
11 20 -6z m310 0 c0 -8 -6 -15 -14 -15 -8 0 -16 -6 -19 -12 -2 -7 -8 -10 -12
-5 -5 4 0 16 11 26 23 24 34 26 34 6z m79 -30 c23 -49 25 -55 13 -55 -4 0 -16
19 -27 43 -11 23 -21 45 -23 50 -2 4 1 7 6 7 5 0 19 -20 31 -45z m-320 9 c16
-37 9 -39 -11 -3 -9 16 -14 29 -9 29 4 0 13 -12 20 -26z m-2169 6 c0 -5 27
-36 60 -68 33 -33 57 -61 54 -65 -8 -8 -34 3 -34 15 0 10 -25 38 -34 38 -10 0
-46 39 -46 50 0 6 -4 10 -10 10 -5 0 -10 7 -10 15 0 8 5 15 10 15 6 0 10 -4
10 -10z m2205 0 c3 -5 2 -10 -4 -10 -5 0 -13 5 -16 10 -3 6 -2 10 4 10 5 0 13
-4 16 -10z m240 0 c3 -5 -1 -10 -9 -10 -9 0 -16 5 -16 10 0 6 4 10 9 10 6 0
13 -4 16 -10z m-2305 -20 c12 -12 18 -26 14 -32 -5 -7 -10 -3 -16 11 -6 17
-13 21 -29 16 -19 -6 -20 -5 -8 8 18 20 15 21 39 -3z m2003 6 c4 -10 1 -13 -9
-9 -7 3 -14 9 -14 14 0 14 17 10 23 -5z m-2169 -14 c2 -4 0 -14 -5 -22 -8 -13
-10 -13 -18 0 -10 15 -6 30 9 30 5 0 11 -4 14 -8z m316 -2 c0 -5 -2 -10 -4
-10 -3 0 -8 5 -11 10 -3 6 -1 10 4 10 6 0 11 -4 11 -10z m-80 -10 c0 -5 -4
-10 -10 -10 -5 0 -10 5 -10 10 0 6 5 10 10 10 6 0 10 -4 10 -10z m2145 0 c3
-5 1 -10 -4 -10 -6 0 -11 5 -11 10 0 6 2 10 4 10 3 0 8 -4 11 -10z m45 0 c0
-5 -2 -10 -4 -10 -3 0 -8 5 -11 10 -3 6 -1 10 4 10 6 0 11 -4 11 -10z m60 0
c0 -5 -8 -10 -17 -10 -15 0 -16 2 -3 10 19 12 20 12 20 0z m-2370 -16 c0 -8
-4 -12 -10 -9 -5 3 -10 10 -10 16 0 5 5 9 10 9 6 0 10 -7 10 -16z m43 -25 c25
-28 12 -38 -13 -11 -11 12 -20 24 -20 27 0 12 17 4 33 -16z m47 12 c0 -6 -4
-13 -10 -16 -5 -3 -10 1 -10 9 0 9 5 16 10 16 6 0 10 -4 10 -9z m2394 -3 c-7
-11 -34 -10 -34 1 0 6 9 9 19 8 11 0 17 -5 15 -9z m-2309 -36 c-3 -3 -11 0
-18 7 -9 10 -8 11 6 5 10 -3 15 -9 12 -12z m1931 -20 c-6 -5 -36 23 -36 34 0
4 9 -1 20 -11 11 -10 18 -20 16 -23z m74 34 c0 -2 -7 -6 -15 -10 -8 -3 -15 -1
-15 4 0 6 7 10 15 10 8 0 15 -2 15 -4z m20 -31 c0 -8 -4 -15 -10 -15 -5 0 -10
7 -10 15 0 8 5 15 10 15 6 0 10 -7 10 -15z m-2120 -5 c0 -5 -4 -10 -10 -10 -5
0 -10 5 -10 10 0 6 5 10 10 10 6 0 10 -4 10 -10z m120 6 c0 -3 -4 -8 -10 -11
-5 -3 -10 -1 -10 4 0 6 5 11 10 11 6 0 10 -2 10 -4z m1845 -16 c-20 -22 -35
-26 -35 -10 0 6 7 10 15 10 8 0 15 5 15 10 0 6 5 10 12 10 6 0 3 -9 -7 -20z
m-1825 -10 c0 -5 -2 -10 -4 -10 -3 0 -8 5 -11 10 -3 6 -1 10 4 10 6 0 11 -4
11 -10z m1347 -12 c-3 -8 -6 -5 -6 6 -1 11 2 17 5 13 3 -3 4 -12 1 -19z m378
2 c3 5 11 8 16 5 5 -4 3 -13 -6 -21 -13 -13 -17 -12 -34 5 -11 11 -16 22 -13
26 4 3 12 -1 18 -10 8 -11 14 -12 19 -5z m-1415 0 c0 -5 -5 -10 -11 -10 -5 0
-7 5 -4 10 3 6 8 10 11 10 2 0 4 -4 4 -10z m165 -8 c-3 -3 -11 0 -18 7 -9 10
-8 11 6 5 10 -3 15 -9 12 -12z m796 -24 c-10 -11 -11 -10 -6 5 4 10 2 17 -4
17 -6 0 -11 5 -11 12 0 8 6 6 17 -5 14 -14 15 -19 4 -29z m-926 18 c-17 -12
-17 -16 -5 -31 12 -14 12 -18 -1 -26 -8 -5 -17 -9 -21 -9 -13 0 -9 18 5 23 9
4 8 8 -3 16 -13 10 -12 13 4 26 11 8 24 15 30 15 5 0 1 -6 -9 -14z m630 -10
c-16 -24 -44 -41 -52 -32 -9 9 9 27 22 22 8 -3 17 4 20 15 4 10 11 19 16 19 5
0 2 -11 -6 -24z m-543 -8 c-7 -7 -12 -8 -12 -2 0 14 12 26 19 19 2 -3 -1 -11
-7 -17z m1258 12 c0 -5 -7 -10 -16 -10 -8 0 -12 5 -9 10 3 6 10 10 16 10 5 0
9 -4 9 -10z m-1480 -20 c0 -5 -4 -10 -10 -10 -5 0 -10 5 -10 10 0 6 5 10 10
10 6 0 10 -4 10 -10z"/>
<path d="M5060 1230 c27 -21 33 -20 25 1 -3 8 -16 16 -28 16 -22 2 -22 2 3
-17z"/>
<path d="M4450 1224 c0 -8 5 -12 10 -9 6 4 8 11 5 16 -9 14 -15 11 -15 -7z"/>
<path d="M4551 1224 c0 -11 3 -14 6 -6 3 7 2 16 -1 19 -3 4 -6 -2 -5 -13z"/>
<path d="M4570 1228 c0 -4 5 -10 10 -13 6 -3 10 -1 10 5 0 6 5 8 10 5 6 -3 10
-2 10 4 0 5 -9 9 -20 8 -11 -1 -20 -5 -20 -9z"/>
<path d="M4736 1225 c-17 -17 -21 -35 -8 -35 9 0 35 40 29 46 -3 3 -12 -2 -21
-11z"/>
<path d="M4385 1220 c-3 -5 -2 -10 4 -10 5 0 13 5 16 10 3 6 2 10 -4 10 -5 0
-13 -4 -16 -10z"/>
<path d="M6025 1221 c-3 -5 -1 -12 5 -16 5 -3 10 1 10 9 0 18 -6 21 -15 7z"/>
<path d="M6110 1218 c0 -5 -5 -6 -11 -2 -12 7 -29 -12 -29 -33 0 -7 7 -13 15
-13 9 0 12 6 9 15 -4 11 -2 13 9 9 8 -3 18 -1 22 5 3 6 11 11 18 11 6 0 3 -6
-8 -13 -12 -10 -14 -16 -7 -21 7 -4 22 2 34 13 l21 21 28 -28 c56 -55 69 -62
69 -37 0 8 -7 15 -15 15 -8 0 -15 5 -15 10 0 6 -7 10 -15 10 -8 0 -15 5 -15
10 0 6 5 10 10 10 6 0 10 5 10 11 0 6 -8 8 -19 4 -11 -3 -22 -1 -26 5 -5 8
-11 8 -21 -1 -8 -7 -14 -7 -14 -1 0 5 -11 10 -25 10 -14 0 -25 -5 -25 -10z"/>
<path d="M3865 1210 c3 -5 8 -10 11 -10 2 0 4 5 4 10 0 6 -5 10 -11 10 -5 0
-7 -4 -4 -10z"/>
<path d="M5580 1211 c0 -5 7 -12 16 -15 24 -9 28 -7 14 9 -14 17 -30 20 -30 6z"/>
<path d="M6256 1204 c-8 -22 -8 -24 8 -24 8 0 16 -7 20 -15 3 -8 10 -15 16
-15 17 0 11 25 -9 40 -11 7 -18 17 -15 22 3 4 1 8 -4 8 -6 0 -13 -7 -16 -16z"/>
<path d="M6290 1210 c0 -5 5 -10 10 -10 6 0 10 5 10 10 0 6 -4 10 -10 10 -5 0
-10 -4 -10 -10z"/>
<path d="M3690 1206 c0 -3 15 -21 34 -41 l34 -36 28 24 c28 24 28 24 6 31 -12
4 -22 12 -22 17 0 6 -4 7 -10 4 -15 -9 -12 -25 5 -25 8 0 15 -4 15 -10 0 -18
-24 -11 -52 15 -26 24 -38 30 -38 21z"/>
<path d="M3830 1200 c0 -5 5 -10 10 -10 6 0 10 5 10 10 0 6 -4 10 -10 10 -5 0
-10 -4 -10 -10z"/>
<path d="M6315 1199 c-4 -6 -5 -12 -2 -15 7 -7 37 7 37 17 0 13 -27 11 -35 -2z"/>
<path d="M6624 1195 c8 -8 19 -15 25 -15 6 0 11 -4 11 -10 0 -5 -5 -10 -11
-10 -5 0 -7 -5 -3 -11 4 -8 9 -7 14 2 6 9 12 10 22 2 7 -6 21 -12 31 -14 18
-4 18 -5 -2 -28 -23 -26 -27 -41 -11 -41 6 0 10 7 10 15 0 8 6 15 14 15 24 0
28 -17 6 -23 -20 -5 -29 -37 -10 -37 5 0 35 -25 66 -55 32 -30 60 -53 62 -50
3 3 11 -4 19 -15 8 -11 19 -20 25 -20 7 0 1 10 -12 22 -15 15 -19 23 -11 26 7
2 27 -9 44 -24 l32 -29 -25 28 c-21 24 -22 30 -10 37 13 8 12 10 -2 10 -10 0
-18 5 -18 10 0 6 -4 10 -10 10 -5 0 -6 -7 -3 -17 4 -11 3 -14 -5 -9 -17 10
-15 36 3 42 8 4 15 12 15 19 0 19 -33 52 -48 48 -7 -3 -10 1 -6 11 9 23 -9 20
-26 -4 -8 -11 -20 -20 -27 -20 -7 0 -13 -4 -13 -10 0 -5 6 -10 14 -10 8 0 17
-9 21 -19 4 -13 12 -18 21 -14 16 6 14 28 -3 28 -19 0 -24 12 -11 23 10 7 20
5 37 -9 l25 -20 -27 -25 c-14 -13 -28 -24 -31 -24 -9 0 -76 73 -76 82 0 5 5 6
10 3 9 -6 40 17 40 29 0 3 -8 6 -18 6 -11 0 -24 11 -30 25 -6 14 -8 25 -3 25
5 0 11 11 13 25 7 33 -10 32 -18 -1 -4 -17 -11 -23 -21 -20 -8 3 -19 6 -24 6
-5 0 -9 7 -9 16 0 11 6 14 20 9 11 -4 20 -2 20 4 0 14 -37 14 -45 1 -4 -7 -14
-5 -28 5 -28 19 -43 19 -23 0z m234 -233 c2 -7 -3 -12 -12 -12 -9 0 -16 7 -16
16 0 17 22 14 28 -4z"/>
<path d="M3330 1191 c0 -6 9 -16 20 -23 23 -15 27 -38 5 -38 -8 0 -15 -4 -15
-10 0 -17 28 -11 39 7 8 16 11 15 30 -7 11 -14 20 -28 21 -32 0 -5 7 -8 15 -8
8 0 15 -7 15 -15 0 -8 -7 -15 -15 -15 -8 0 -15 7 -15 15 0 8 -7 15 -15 15 -8
0 -15 7 -15 15 0 8 -7 15 -15 15 -8 0 -15 -5 -15 -10 0 -6 7 -13 15 -16 18 -7
20 -34 2 -34 -7 0 -21 11 -31 25 -10 14 -25 25 -34 25 -8 0 2 -17 27 -41 22
-23 41 -45 41 -50 0 -5 6 -9 13 -9 6 0 23 -12 36 -25 12 -14 28 -22 34 -18 7
4 6 8 -3 11 -19 7 -40 28 -40 41 0 6 -7 11 -15 11 -8 0 -15 7 -15 15 0 8 6 15
14 15 8 0 16 -7 20 -15 3 -8 10 -15 16 -15 5 0 10 7 10 15 0 26 19 17 64 -30
43 -43 66 -56 66 -35 0 6 -7 10 -15 10 -8 0 -15 7 -15 15 0 8 -5 15 -11 15
-14 0 -39 25 -39 39 0 6 -4 11 -9 11 -12 0 -41 29 -41 41 0 20 22 6 79 -51 33
-33 65 -60 71 -60 5 0 10 -4 10 -10 0 -5 9 -19 20 -30 11 -11 20 -17 20 -13 0
3 11 -4 25 -17 14 -13 25 -20 25 -15 0 11 -49 55 -61 55 -5 0 -9 5 -9 11 0 6
-22 33 -50 59 -44 42 -62 70 -44 70 3 0 51 -45 106 -100 59 -59 104 -97 111
-93 8 5 7 8 -2 11 -14 5 -91 78 -91 87 0 11 -58 65 -69 65 -6 0 -11 9 -11 20
0 11 -3 19 -7 18 -12 -4 -54 28 -46 35 3 4 1 7 -5 7 -6 0 -23 12 -37 26 -14
14 -29 23 -32 20 -4 -4 12 -23 35 -44 45 -41 51 -52 27 -52 -8 0 -15 5 -15 10
0 6 -7 10 -15 10 -8 0 -15 5 -15 11 0 6 -7 18 -16 27 -15 14 -18 14 -33 -7 -9
-12 -20 -19 -24 -15 -12 12 -8 24 7 24 19 0 29 17 20 31 -4 8 -9 7 -15 -2 -8
-12 -11 -12 -18 0 -8 12 -12 12 -25 2 -13 -11 -19 -11 -31 -1 -10 8 -15 9 -15
1z m70 -22 c0 -5 -7 -9 -15 -9 -15 0 -20 12 -9 23 8 8 24 -1 24 -14z m60 -44
c0 -8 -7 -15 -15 -15 -8 0 -15 7 -15 15 0 8 7 15 15 15 8 0 15 -7 15 -15z"/>
<path d="M3510 1190 c0 -5 5 -10 10 -10 6 0 22 -12 35 -27 13 -16 27 -25 31
-20 4 4 -8 21 -26 37 -35 31 -50 37 -50 20z"/>
<path d="M3565 1190 c3 -5 10 -10 16 -10 5 0 9 5 9 10 0 6 -7 10 -16 10 -8 0
-12 -4 -9 -10z"/>
<path d="M3626 1186 c3 -9 11 -16 16 -16 13 0 5 23 -10 28 -7 2 -10 -2 -6 -12z"/>
<path d="M3283 1173 c9 -9 20 -13 24 -9 4 4 1 11 -7 16 -25 16 -35 11 -17 -7z"/>
<path d="M6770 1180 c0 -5 5 -10 10 -10 6 0 10 5 10 10 0 6 -4 10 -10 10 -5 0
-10 -4 -10 -10z"/>
<path d="M6802 1178 c-14 -14 -16 -28 -3 -28 5 0 11 9 14 20 6 23 5 24 -11 8z"/>
<path d="M6840 1178 c0 -9 8 -19 18 -23 20 -7 67 -64 59 -72 -3 -3 -13 2 -22
11 -9 9 -21 16 -26 16 -5 0 -9 8 -9 17 0 13 -3 14 -11 6 -9 -9 1 -25 39 -62
27 -28 55 -51 61 -51 6 0 11 -5 11 -10 0 -14 40 -54 68 -69 14 -8 22 -8 22 -1
0 5 -7 10 -15 10 -8 0 -15 3 -15 8 0 11 -79 92 -90 92 -5 0 -10 7 -10 15 0 24
17 18 56 -21 28 -29 38 -34 45 -23 5 8 9 17 9 22 0 4 7 7 15 7 8 0 15 5 15 10
0 16 -27 12 -34 -5 -8 -21 -22 -19 -48 7 l-21 21 21 18 c26 21 28 32 5 25 -12
-4 -24 4 -38 23 -10 16 -23 27 -27 25 -4 -3 -8 0 -8 5 0 6 -4 11 -10 11 -19 0
-10 -21 15 -32 14 -6 25 -17 25 -25 0 -7 5 -13 10 -13 6 0 10 -7 10 -15 0 -8
-4 -15 -10 -15 -5 0 -10 5 -10 10 0 6 -7 10 -15 10 -8 0 -12 6 -9 14 3 9 -3
17 -15 21 -12 3 -21 13 -21 21 0 9 -5 12 -11 8 -6 -3 -15 0 -20 7 -7 11 -9 11
-9 -3z"/>
<path d="M6952 1180 c5 -16 59 -49 71 -43 11 7 8 41 -5 49 -8 5 -9 2 -5 -9 9
-23 -10 -31 -22 -10 -6 10 -11 14 -11 9 0 -5 -7 -2 -17 5 -14 12 -16 12 -11
-1z"/>
<path d="M3150 1175 c0 0 13 -11 29 -23 27 -20 30 -20 43 -5 11 15 11 16 -4
10 -10 -3 -18 -3 -18 2 0 5 -11 11 -25 13 -14 3 -25 4 -25 3z"/>
<path d="M3264 1144 c20 -20 39 -34 42 -31 7 7 -56 67 -69 67 -5 0 7 -16 27
-36z"/>
<path d="M3602 1169 c2 -7 10 -15 17 -17 8 -3 12 1 9 9 -2 7 -10 15 -17 17 -8
3 -12 -1 -9 -9z"/>
<path d="M7040 1171 c0 -5 7 -14 15 -21 16 -14 18 -10 9 14 -6 17 -24 22 -24
7z"/>
<path d="M7075 1170 c3 -5 8 -10 11 -10 2 0 4 5 4 10 0 6 -5 10 -11 10 -5 0
-7 -4 -4 -10z"/>
<path d="M3047 1154 c4 -11 8 -12 13 -4 6 9 11 7 18 -6 6 -10 14 -16 17 -12
10 10 -20 38 -39 38 -10 0 -13 -6 -9 -16z"/>
<path d="M3105 1160 c3 -5 10 -10 16 -10 5 0 9 5 9 10 0 6 -7 10 -16 10 -8 0
-12 -4 -9 -10z"/>
<path d="M7110 1155 c0 -8 5 -15 10 -15 6 0 10 7 10 15 0 8 -4 15 -10 15 -5 0
-10 -7 -10 -15z"/>
<path d="M7142 1145 c-8 -17 -8 -25 -1 -25 6 0 13 9 16 20 7 25 12 25 29 3 12
-17 14 -17 27 2 15 19 16 19 36 1 23 -21 29 -13 7 10 -18 17 -38 18 -54 2 -9
-9 -12 -9 -12 0 0 22 -37 12 -48 -13z"/>
<path d="M7285 1160 c27 -12 35 -12 35 0 0 6 -12 10 -27 9 -25 0 -26 -1 -8 -9z"/>
<path d="M7330 1155 c-7 -9 -10 -18 -6 -22 3 -4 13 2 22 13 15 18 15 18 9 -9
-6 -28 12 -57 34 -57 6 0 11 -4 11 -9 0 -18 -12 -41 -22 -41 -5 0 -6 5 -3 10
3 6 0 17 -9 25 -19 19 -26 19 -26 0 0 -8 7 -15 16 -15 8 0 12 -5 9 -10 -3 -6
0 -17 8 -25 13 -12 16 -12 21 3 4 9 15 33 25 52 19 34 19 35 -1 54 -16 15 -17
20 -6 28 9 5 4 7 -14 4 -16 -3 -28 0 -28 5 0 14 -26 11 -40 -6z m63 -35 c-3
-11 -9 -20 -14 -20 -10 0 -12 24 -2 33 13 13 21 7 16 -13z m27 -25 c0 -8 -4
-15 -10 -15 -5 0 -10 7 -10 15 0 8 5 15 10 15 6 0 10 -7 10 -15z"/>
<path d="M2860 1150 c0 -5 7 -7 15 -4 8 4 15 8 15 10 0 2 -7 4 -15 4 -8 0 -15
-4 -15 -10z"/>
<path d="M2896 1139 c-15 -12 -24 -24 -21 -27 3 -4 9 -2 13 4 4 6 18 18 32 27
13 9 20 17 14 17 -6 0 -23 -10 -38 -21z"/>
<path d="M2956 1151 c-7 -11 18 -40 37 -41 4 0 7 -7 7 -15 0 -8 7 -15 15 -15
8 0 15 2 15 4 0 10 -50 59 -51 50 0 -5 -4 0 -8 10 -5 14 -10 16 -15 7z"/>
<path d="M3320 1150 c0 -5 5 -10 10 -10 6 0 10 5 10 10 0 6 -4 10 -10 10 -5 0
-10 -4 -10 -10z"/>
<path d="M6820 1144 c0 -8 5 -12 10 -9 6 4 8 11 5 16 -9 14 -15 11 -15 -7z"/>
<path d="M7434 1149 c-3 -6 -1 -16 5 -22 8 -8 11 -5 11 11 0 24 -5 28 -16 11z"/>
<path d="M7462 1128 c0 -17 -7 -35 -14 -39 -7 -4 -9 -12 -4 -16 5 -4 11 -2 13
5 3 6 11 12 18 12 7 0 18 14 24 30 6 18 6 28 1 25 -6 -4 -10 -12 -10 -20 0 -8
-5 -17 -11 -21 -8 -5 -10 1 -5 19 3 14 2 28 -2 31 -5 3 -9 -9 -10 -26z"/>
<path d="M2835 1140 c3 -5 8 -10 11 -10 2 0 4 5 4 10 0 6 -5 10 -11 10 -5 0
-7 -4 -4 -10z"/>
<path d="M3016 1141 c-3 -4 3 -16 14 -26 11 -10 20 -14 20 -9 0 5 15 -8 33
-28 19 -21 37 -35 40 -31 10 10 8 23 -3 23 -12 0 -50 37 -50 49 0 5 -10 7 -22
3 -14 -3 -19 -1 -14 6 3 6 2 13 -3 16 -5 4 -12 2 -15 -3z"/>
<path d="M3140 1144 c0 -10 28 -34 39 -34 6 0 11 -4 11 -10 0 -5 25 -34 55
-65 57 -56 64 -70 43 -78 -8 -2 -9 -8 -4 -13 5 -5 11 -4 13 4 7 19 24 14 55
-18 28 -30 48 -38 48 -20 0 6 -5 10 -10 10 -14 0 -60 46 -60 60 0 5 -7 10 -15
10 -8 0 -15 5 -15 10 0 6 -9 19 -20 30 -11 11 -24 20 -30 20 -5 0 -10 7 -10
15 0 8 -3 15 -7 15 -5 0 -25 16 -45 35 -35 34 -48 41 -48 29z"/>
<path d="M6760 1140 c0 -5 5 -10 10 -10 6 0 10 5 10 10 0 6 -4 10 -10 10 -5 0
-10 -4 -10 -10z"/>
<path d="M7080 1139 c0 -12 140 -149 152 -149 5 0 8 7 8 15 0 8 7 15 15 15 9
0 18 -7 21 -15 7 -17 24 -20 24 -5 0 13 -37 50 -50 50 -5 0 -10 5 -10 10 0 17
-40 51 -52 44 -7 -4 1 -17 21 -34 34 -30 39 -45 16 -54 -9 -3 -15 0 -15 10 0
8 -7 17 -15 20 -8 4 -15 12 -15 20 0 8 -6 11 -15 8 -10 -4 -15 0 -15 12 0 9
-3 15 -6 12 -7 -8 -44 28 -44 42 0 6 -4 10 -10 10 -5 0 -10 -5 -10 -11z"/>
<path d="M2650 1125 c0 -8 4 -15 10 -15 5 0 7 7 4 15 -4 8 -8 15 -10 15 -2 0
-4 -7 -4 -15z"/>
<path d="M2680 1133 c1 -18 18 -35 24 -24 4 6 2 11 -4 11 -6 0 -8 5 -5 10 3 6
1 10 -4 10 -6 0 -11 -3 -11 -7z"/>
<path d="M2810 1122 c6 -13 14 -21 18 -18 3 4 -2 14 -12 24 -18 16 -18 16 -6
-6z"/>
<path d="M7220 1130 c0 -12 32 -50 42 -50 5 0 8 7 8 15 0 8 -7 15 -15 15 -8 0
-15 7 -15 15 0 8 -4 15 -10 15 -5 0 -10 -4 -10 -10z"/>
<path d="M7285 1127 c-4 -10 -5 -21 -1 -24 10 -10 18 4 13 24 -4 17 -4 17 -12
0z"/>
<path d="M2580 1126 c0 -2 7 -9 15 -16 13 -11 14 -10 9 4 -5 14 -24 23 -24 12z"/>
<path d="M2723 1103 c-16 -33 -17 -60 -3 -68 7 -4 9 3 5 22 -6 27 -6 27 9 9
14 -17 16 -18 16 -3 0 9 -5 17 -10 17 -6 0 -8 11 -4 25 8 33 2 32 -13 -2z"/>
<path d="M2920 1121 c0 -5 7 -11 15 -15 8 -3 15 -10 15 -16 0 -14 -27 -13 -33
3 -2 6 -8 9 -12 5 -9 -8 18 -38 34 -38 6 0 11 5 11 10 0 6 7 10 15 10 8 0 15
-5 15 -11 0 -12 29 -38 43 -39 4 0 7 5 7 10 0 6 -6 10 -12 10 -7 0 -22 13 -33
29 -10 16 -22 28 -26 25 -4 -2 -9 3 -13 11 -6 16 -26 21 -26 6z"/>
<path d="M3220 1125 c0 -8 34 -45 42 -45 5 0 8 7 8 16 0 8 -4 12 -10 9 -5 -3
-10 1 -10 9 0 9 -7 16 -15 16 -8 0 -15 -2 -15 -5z"/>
<path d="M3600 1115 c0 -9 5 -15 11 -13 6 2 11 8 11 13 0 5 -5 11 -11 13 -6 2
-11 -4 -11 -13z"/>
<path d="M6662 1119 c2 -7 10 -15 17 -17 8 -3 12 1 9 9 -2 7 -10 15 -17 17 -8
3 -12 -1 -9 -9z"/>
<path d="M6787 1124 c-8 -8 1 -24 14 -24 5 0 9 7 9 15 0 15 -12 20 -23 9z"/>
<path d="M7035 1120 c-3 -5 1 -10 9 -10 9 0 16 5 16 10 0 6 -4 10 -9 10 -6 0
-13 -4 -16 -10z"/>
<path d="M7160 1114 c0 -8 5 -12 10 -9 6 3 10 10 10 16 0 5 -4 9 -10 9 -5 0
-10 -7 -10 -16z"/>
<path d="M7528 1119 c-14 -8 -15 -14 -6 -34 11 -25 28 -34 28 -15 0 6 -4 10
-10 10 -15 0 -12 16 6 34 17 18 8 21 -18 5z"/>
<path d="M7600 1127 c0 -4 11 -20 25 -35 14 -15 25 -23 25 -19 0 4 -11 20 -25
35 -14 15 -25 23 -25 19z"/>
<path d="M2410 1114 c0 -3 7 -13 16 -22 15 -15 17 -14 30 2 7 10 17 15 23 11
6 -3 11 -1 11 4 0 15 -23 14 -39 -1 -11 -10 -14 -10 -18 0 -5 12 -23 17 -23 6z"/>
<path d="M2532 1106 c7 -8 15 -12 17 -11 5 6 -10 25 -20 25 -5 0 -4 -6 3 -14z"/>
<path d="M2750 1106 c0 -7 8 -20 17 -27 15 -12 16 -12 10 4 -4 10 -7 23 -7 28
0 5 -4 9 -10 9 -5 0 -10 -6 -10 -14z"/>
<path d="M3105 1110 c3 -5 10 -10 16 -10 5 0 9 5 9 10 0 6 -7 10 -16 10 -8 0
-12 -4 -9 -10z"/>
<path d="M7567 1113 c-11 -10 -8 -43 3 -43 19 0 10 -22 -21 -51 -18 -16 -29
-32 -26 -35 9 -10 97 88 90 100 -4 5 -9 2 -13 -8 -5 -16 -7 -16 -19 -2 -11 13
-11 19 -1 31 12 14 0 22 -13 8z"/>
<path d="M7660 1110 c-9 -6 -10 -10 -3 -10 6 0 15 5 18 10 8 12 4 12 -15 0z"/>
<path d="M2273 1103 c-15 -5 -17 -23 -4 -23 5 0 11 7 15 15 3 8 4 15 3 14 -1
0 -8 -3 -14 -6z"/>
<path d="M2375 1090 c-3 -11 -11 -20 -16 -20 -5 0 -9 -4 -9 -10 0 -17 14 -11
33 15 9 13 13 26 8 30 -5 3 -12 -4 -16 -15z"/>
<path d="M2552 1065 c-30 -62 -27 -71 4 -12 14 27 24 51 22 53 -3 2 -14 -17
-26 -41z"/>
<path d="M2626 1095 c-3 -9 -10 -13 -16 -10 -6 3 -7 -1 -4 -10 6 -14 9 -13 21
5 8 12 13 23 10 26 -2 3 -7 -2 -11 -11z"/>
<path d="M2780 1100 c0 -5 5 -10 10 -10 6 0 10 5 10 10 0 6 -4 10 -10 10 -5 0
-10 -4 -10 -10z"/>
<path d="M7731 1080 c-19 -17 -31 -33 -28 -37 6 -5 67 53 67 63 0 7 -5 4 -39
-26z"/>
<path d="M7880 1099 c0 -22 27 -32 34 -13 9 24 7 31 -4 14 -9 -13 -11 -13 -20
0 -8 13 -10 13 -10 -1z"/>
<path d="M2320 1090 c0 -5 5 -10 10 -10 6 0 10 5 10 10 0 6 -4 10 -10 10 -5 0
-10 -4 -10 -10z"/>
<path d="M2500 1089 c0 -5 5 -7 10 -4 6 3 10 8 10 11 0 2 -4 4 -10 4 -5 0 -10
-5 -10 -11z"/>
<path d="M2665 1091 c-3 -6 -2 -11 4 -11 5 0 11 -8 13 -17 2 -10 6 -13 10 -8
3 6 0 18 -7 28 -8 12 -15 14 -20 8z"/>
<path d="M2840 1091 c0 -5 7 -11 14 -14 10 -4 13 -1 9 9 -6 15 -23 19 -23 5z"/>
<path d="M3135 1091 c-6 -11 9 -23 19 -14 9 9 7 23 -3 23 -6 0 -12 -4 -16 -9z"/>
<path d="M3620 1093 c0 -12 157 -163 169 -163 6 0 11 5 11 10 0 6 -7 10 -15
10 -8 0 -15 7 -15 15 0 8 -7 15 -15 15 -8 0 -15 7 -15 15 0 8 -7 15 -15 15 -8
0 -15 6 -15 13 0 14 -35 47 -50 47 -6 0 -10 7 -10 15 0 8 -7 15 -15 15 -8 0
-15 -3 -15 -7z"/>
<path d="M6995 1089 c-4 -6 -5 -12 -2 -15 7 -7 37 7 37 17 0 13 -27 11 -35 -2z"/>
<path d="M7060 1091 c0 -5 7 -11 15 -15 8 -3 15 -13 15 -22 0 -8 5 -14 12 -12
18 6 22 28 5 28 -8 0 -17 7 -21 15 -6 16 -26 21 -26 6z"/>
<path d="M7310 1090 c0 -5 4 -10 9 -10 6 0 13 5 16 10 3 6 -1 10 -9 10 -9 0
-16 -4 -16 -10z"/>
<path d="M7687 1093 c-4 -3 -7 -11 -7 -17 0 -6 5 -5 12 2 6 6 9 14 7 17 -3 3
-9 2 -12 -2z"/>
<path d="M7931 1077 c-13 -21 -12 -21 5 -5 10 10 16 20 13 22 -3 3 -11 -5 -18
-17z"/>
<path d="M8032 1070 c-7 -11 -8 -20 -3 -20 9 0 24 30 18 36 -1 2 -8 -6 -15
-16z"/>
<path d="M8080 1075 c-11 -13 -10 -14 4 -9 9 3 16 10 16 15 0 13 -6 11 -20 -6z"/>
<path d="M2400 1071 c0 -5 7 -11 14 -14 10 -4 13 -1 9 9 -6 15 -23 19 -23 5z"/>
<path d="M2460 1070 c0 -5 5 -10 10 -10 6 0 10 5 10 10 0 6 -4 10 -10 10 -5 0
-10 -4 -10 -10z"/>
<path d="M2520 1069 c0 -5 5 -7 10 -4 6 3 10 8 10 11 0 2 -4 4 -10 4 -5 0 -10
-5 -10 -11z"/>
<path d="M2791 1064 c-18 -21 -6 -30 14 -11 8 9 15 18 15 21 0 11 -15 5 -29
-10z"/>
<path d="M3040 1074 c0 -5 14 -23 43 -55 9 -10 17 -23 17 -29 0 -5 6 -7 14 -4
8 3 17 1 21 -5 8 -14 25 -14 25 -1 0 6 -7 10 -15 10 -8 0 -15 5 -15 10 0 6 -3
9 -7 8 -10 -4 -53 39 -53 51 0 5 -7 11 -15 15 -8 3 -15 3 -15 0z"/>
<path d="M3280 1070 c0 -5 33 -43 73 -83 39 -40 71 -71 70 -69 -2 3 2 11 8 18
8 9 6 11 -8 8 -13 -4 -25 7 -43 36 -14 22 -30 40 -37 40 -7 0 -13 7 -13 15 0
8 -7 15 -15 15 -8 0 -15 7 -15 15 0 8 -4 15 -10 15 -5 0 -10 -4 -10 -10z"/>
<path d="M7275 1070 c-3 -6 1 -13 10 -16 19 -8 30 0 20 15 -8 14 -22 14 -30 1z"/>
<path d="M7490 1070 c0 -5 5 -10 10 -10 6 0 10 5 10 10 0 6 -4 10 -10 10 -5 0
-10 -4 -10 -10z"/>
<path d="M7942 1049 c-23 -28 -22 -41 1 -16 26 27 39 47 31 46 -5 0 -19 -13
-32 -30z"/>
<path d="M8125 1070 c-3 -5 -1 -10 4 -10 6 0 11 5 11 10 0 6 -2 10 -4 10 -3 0
-8 -4 -11 -10z"/>
<path d="M2240 1060 c-9 -6 -10 -10 -3 -10 6 0 15 5 18 10 8 12 4 12 -15 0z"/>
<path d="M2292 1058 c-7 -7 -12 -16 -12 -21 0 -5 7 -1 16 8 9 9 14 18 12 20
-2 3 -10 -1 -16 -7z"/>
<path d="M2580 1060 c0 -5 5 -10 11 -10 5 0 7 5 4 10 -3 6 -8 10 -11 10 -2 0
-4 -4 -4 -10z"/>
<path d="M2640 1060 c0 -5 5 -10 10 -10 6 0 10 5 10 10 0 6 -4 10 -10 10 -5 0
-10 -4 -10 -10z"/>
<path d="M2880 1064 c0 -10 31 -36 37 -31 3 3 -2 13 -10 22 -16 15 -27 19 -27
9z"/>
<path d="M3160 1065 c0 -7 38 -45 45 -45 3 0 5 7 5 15 0 8 -7 15 -15 15 -8 0
-15 5 -15 10 0 6 -4 10 -10 10 -5 0 -10 -2 -10 -5z"/>
<path d="M7470 1056 c0 -9 5 -16 10 -16 6 0 10 4 10 9 0 6 -4 13 -10 16 -5 3
-10 -1 -10 -9z"/>
<path d="M7760 1059 c0 -5 5 -7 10 -4 6 3 10 8 10 11 0 2 -4 4 -10 4 -5 0 -10
-5 -10 -11z"/>
<path d="M7860 1059 c0 -6 -7 -8 -16 -5 -14 5 -15 4 -4 -9 7 -9 13 -14 14 -13
1 2 8 11 15 21 9 11 10 17 2 17 -6 0 -11 -5 -11 -11z"/>
<path d="M8165 1059 c-4 -6 -5 -12 -2 -15 2 -3 7 2 10 11 7 17 1 20 -8 4z"/>
<path d="M2476 1033 c-10 -13 -16 -27 -13 -30 3 -2 10 5 17 16 6 12 15 19 20
16 5 -3 11 -1 14 4 14 21 -21 16 -38 -6z"/>
<path d="M2816 1041 c-10 -11 -16 -26 -13 -33 4 -8 6 -7 6 5 1 9 5 17 10 17 5
0 11 7 15 15 7 20 3 19 -18 -4z"/>
<path d="M2855 1050 c-3 -5 -1 -10 4 -10 6 0 11 5 11 10 0 6 -2 10 -4 10 -3 0
-8 -4 -11 -10z"/>
<path d="M7620 1050 c0 -5 5 -10 11 -10 5 0 7 5 4 10 -3 6 -8 10 -11 10 -2 0
-4 -4 -4 -10z"/>
<path d="M7877 1034 c-22 -29 -14 -31 13 -4 10 10 16 21 12 24 -4 2 -15 -7
-25 -20z"/>
<path d="M2380 1034 c0 -8 5 -12 10 -9 6 4 8 11 5 16 -9 14 -15 11 -15 -7z"/>
<path d="M2440 1040 c0 -5 5 -10 10 -10 6 0 10 5 10 10 0 6 -4 10 -10 10 -5 0
-10 -4 -10 -10z"/>
<path d="M2950 1040 c0 -5 7 -10 16 -10 8 0 12 5 9 10 -3 6 -10 10 -16 10 -5
0 -9 -4 -9 -10z"/>
<path d="M6550 1045 c0 -10 71 -77 76 -72 4 3 -9 22 -28 41 -32 33 -48 43 -48
31z"/>
<path d="M7307 1044 c-8 -8 1 -24 14 -24 5 0 9 7 9 15 0 15 -12 20 -23 9z"/>
<path d="M7511 1036 c-7 -8 -8 -17 -3 -20 6 -3 13 1 16 10 9 23 2 28 -13 10z"/>
<path d="M8061 1033 c7 -10 15 -20 16 -22 2 -2 3 3 3 11 0 9 -7 19 -16 22 -15
6 -15 4 -3 -11z"/>
<path d="M8105 1039 c-4 -6 -5 -12 -2 -15 2 -3 7 2 10 11 7 17 1 20 -8 4z"/>
<path d="M2205 1030 c3 -5 8 -10 11 -10 2 0 4 5 4 10 0 6 -5 10 -11 10 -5 0
-7 -4 -4 -10z"/>
<path d="M2332 1021 c7 -11 15 -18 19 -15 4 2 9 -2 12 -8 2 -8 8 -9 13 -4 5 5
4 11 -4 13 -7 3 -19 11 -26 19 -21 20 -28 17 -14 -5z"/>
<path d="M2565 1030 c-3 -5 -1 -10 4 -10 6 0 11 5 11 10 0 6 -2 10 -4 10 -3 0
-8 -4 -11 -10z"/>
<path d="M2601 1024 c0 -11 3 -14 6 -6 3 7 2 16 -1 19 -3 4 -6 -2 -5 -13z"/>
<path d="M2664 1028 c3 -10 9 -25 12 -33 10 -24 -12 -17 -24 8 -6 12 -11 17
-11 11 -1 -5 5 -19 13 -30 11 -14 18 -16 26 -8 9 9 8 19 -5 40 -9 16 -14 21
-11 12z"/>
<path d="M2755 1030 c3 -5 8 -10 11 -10 2 0 4 5 4 10 0 6 -5 10 -11 10 -5 0
-7 -4 -4 -10z"/>
<path d="M3135 1030 c3 -5 11 -10 16 -10 6 0 7 5 4 10 -3 6 -11 10 -16 10 -6
0 -7 -4 -4 -10z"/>
<path d="M6620 1034 c0 -4 14 -21 32 -39 27 -29 33 -31 46 -18 8 7 11 17 8 21
-4 3 -10 1 -15 -6 -5 -8 -12 -6 -24 8 -9 11 -17 25 -17 30 0 6 -7 10 -15 10
-8 0 -15 -3 -15 -6z"/>
<path d="M7060 1030 c0 -5 5 -10 10 -10 6 0 10 5 10 10 0 6 -4 10 -10 10 -5 0
-10 -4 -10 -10z"/>
<path d="M7120 1030 c0 -5 7 -10 15 -10 8 0 15 5 15 10 0 6 -7 10 -15 10 -8 0
-15 -4 -15 -10z"/>
<path d="M7440 1030 c0 -5 5 -10 10 -10 6 0 10 5 10 10 0 6 -4 10 -10 10 -5 0
-10 -4 -10 -10z"/>
<path d="M7673 1023 c-10 -16 -13 -16 -22 -3 -13 19 -14 0 -1 -20 8 -13 11
-12 24 5 14 18 20 35 13 35 -1 0 -7 -8 -14 -17z"/>
<path d="M7735 1030 c-3 -5 -2 -10 4 -10 5 0 13 5 16 10 3 6 2 10 -4 10 -5 0
-13 -4 -16 -10z"/>
<path d="M7776 1024 c-10 -25 1 -29 14 -5 6 12 7 21 1 21 -5 0 -12 -7 -15 -16z"/>
<path d="M7816 1023 c-6 -14 -5 -15 5 -6 7 7 10 15 7 18 -3 3 -9 -2 -12 -12z"/>
<path d="M8126 1023 c-6 -14 -5 -15 5 -6 7 7 10 15 7 18 -3 3 -9 -2 -12 -12z"/>
<path d="M2690 1022 c0 -5 7 -15 15 -22 8 -7 15 -8 15 -2 0 5 -7 15 -15 22 -8
7 -15 8 -15 2z"/>
<path d="M2840 1020 c0 -12 29 -45 35 -39 2 2 -5 15 -16 28 -10 13 -19 18 -19
11z"/>
<path d="M2876 1015 c4 -8 10 -15 15 -15 4 0 6 7 3 15 -4 8 -10 15 -15 15 -4
0 -6 -7 -3 -15z"/>
<path d="M3466 1022 c-7 -12 71 -98 81 -88 3 3 -10 20 -29 39 -20 19 -37 40
-40 48 -3 9 -6 10 -12 1z"/>
<path d="M7420 1018 c0 -9 -6 -18 -12 -21 -7 -2 -10 -8 -6 -12 12 -13 37 20
27 36 -7 11 -9 11 -9 -3z"/>
<path d="M7600 1015 c0 -8 5 -15 10 -15 6 0 10 7 10 15 0 8 -4 15 -10 15 -5 0
-10 -7 -10 -15z"/>
<path d="M7951 1014 c-7 -8 -11 -17 -9 -20 3 -2 13 5 23 16 10 11 14 20 9 20
-5 -1 -15 -8 -23 -16z"/>
<path d="M2305 1010 c3 -5 8 -10 11 -10 2 0 4 5 4 10 0 6 -5 10 -11 10 -5 0
-7 -4 -4 -10z"/>
<path d="M2400 1009 c0 -5 5 -7 10 -4 6 3 10 8 10 11 0 2 -4 4 -10 4 -5 0 -10
-5 -10 -11z"/>
<path d="M2492 1000 c-18 -29 -15 -38 4 -12 9 13 14 25 12 27 -2 2 -9 -5 -16
-15z"/>
<path d="M2735 1010 c3 -5 8 -10 11 -10 2 0 4 5 4 10 0 6 -5 10 -11 10 -5 0
-7 -4 -4 -10z"/>
<path d="M2935 1010 c3 -5 8 -10 11 -10 2 0 4 5 4 10 0 6 -5 10 -11 10 -5 0
-7 -4 -4 -10z"/>
<path d="M2980 1014 c0 -9 74 -74 85 -74 5 0 -10 18 -33 40 -39 38 -52 47 -52
34z"/>
<path d="M3040 1010 c0 -5 5 -10 11 -10 5 0 7 5 4 10 -3 6 -8 10 -11 10 -2 0
-4 -4 -4 -10z"/>
<path d="M3220 1010 c0 -5 5 -10 10 -10 6 0 10 5 10 10 0 6 -4 10 -10 10 -5 0
-10 -4 -10 -10z"/>
<path d="M3974 1011 c4 -5 0 -11 -6 -14 -7 -2 -10 -8 -6 -12 8 -9 38 12 38 26
0 5 -7 9 -16 9 -8 0 -13 -4 -10 -9z"/>
<path d="M6300 1013 c1 -15 39 -58 45 -51 8 8 -24 58 -36 58 -5 0 -9 -3 -9 -7z"/>
<path d="M6900 1007 c0 -13 39 -41 47 -34 5 5 -33 47 -42 47 -3 0 -5 -6 -5
-13z"/>
<path d="M7031 1006 c-8 -9 -11 -19 -7 -23 9 -9 29 13 24 27 -2 8 -8 7 -17 -4z"/>
<path d="M7090 1005 c0 -16 16 -20 24 -6 3 5 -1 11 -9 15 -9 3 -15 0 -15 -9z"/>
<path d="M7336 1011 c-4 -5 -2 -12 3 -15 5 -4 12 -2 15 3 4 5 2 12 -3 15 -5 4
-12 2 -15 -3z"/>
<path d="M7461 996 c-13 -14 -21 -31 -18 -38 4 -10 6 -10 6 1 1 7 11 22 23 32
11 11 19 21 16 24 -2 3 -15 -6 -27 -19z"/>
<path d="M7705 1010 c-3 -5 -1 -10 4 -10 6 0 11 5 11 10 0 6 -2 10 -4 10 -3 0
-8 -4 -11 -10z"/>
<path d="M7892 1004 c-7 -8 -8 -14 -3 -14 10 0 25 19 20 25 -2 1 -10 -3 -17
-11z"/>
<path d="M2425 999 c-4 -6 -5 -12 -2 -15 2 -3 7 2 10 11 7 17 1 20 -8 4z"/>
<path d="M2760 992 c-13 -14 -12 -15 3 -9 10 4 21 -1 29 -12 7 -9 20 -21 28
-26 8 -4 4 5 -10 21 -14 16 -27 32 -30 36 -3 3 -12 -1 -20 -10z"/>
<path d="M3180 990 c14 -10 26 -17 29 -15 6 7 -27 35 -41 35 -7 0 -2 -9 12
-20z"/>
<path d="M7150 1000 c0 -5 7 -10 15 -10 8 0 15 5 15 10 0 6 -7 10 -15 10 -8 0
-15 -4 -15 -10z"/>
<path d="M7563 983 c-6 -12 -7 -23 -2 -23 5 0 9 4 9 9 0 5 6 11 14 13 11 2 11
6 2 14 -9 8 -15 5 -23 -13z"/>
<path d="M7740 1006 c0 -4 7 -14 15 -22 8 -9 15 -11 15 -6 0 5 -7 15 -15 22
-8 7 -15 9 -15 6z"/>
<path d="M2546 983 c-6 -14 -5 -15 5 -6 7 7 10 15 7 18 -3 3 -9 -2 -12 -12z"/>
<path d="M2620 980 c6 -11 13 -20 16 -20 2 0 0 9 -6 20 -6 11 -13 20 -16 20
-2 0 0 -9 6 -20z"/>
<path d="M2901 984 c-18 -21 -6 -30 14 -11 8 9 15 18 15 21 0 11 -15 5 -29
-10z"/>
<path d="M7786 984 c-5 -14 -4 -15 9 -4 17 14 19 20 6 20 -5 0 -12 -7 -15 -16z"/>
<path d="M2515 980 c3 -5 8 -10 11 -10 2 0 4 5 4 10 0 6 -5 10 -11 10 -5 0 -7
-4 -4 -10z"/>
<path d="M2580 981 c0 -5 5 -13 10 -16 6 -3 10 -2 10 4 0 5 -4 13 -10 16 -5 3
-10 2 -10 -4z"/>
<path d="M2965 970 c10 -11 20 -18 23 -15 7 6 -18 35 -31 35 -5 0 -2 -9 8 -20z"/>
<path d="M3070 975 c7 -8 17 -15 22 -15 5 0 3 7 -6 15 -8 8 -18 15 -22 15 -3
0 -1 -7 6 -15z"/>
<path d="M3240 986 c0 -2 7 -9 15 -16 12 -10 15 -10 15 4 0 9 -7 16 -15 16 -8
0 -15 -2 -15 -4z"/>
<path d="M7065 979 c-4 -6 -3 -15 3 -21 6 -6 11 -4 15 6 7 18 -9 31 -18 15z"/>
<path d="M7120 976 c0 -9 5 -16 10 -16 6 0 10 4 10 9 0 6 -4 13 -10 16 -5 3
-10 -1 -10 -9z"/>
<path d="M7251 981 c-10 -6 -10 -10 -1 -16 13 -8 24 -1 19 14 -3 6 -10 7 -18
2z"/>
<path d="M7291 965 c-13 -14 -18 -25 -12 -25 13 0 51 31 51 42 0 15 -15 8 -39
-17z"/>
<path d="M7360 982 c0 -5 10 -17 21 -28 22 -19 22 -19 10 3 -12 24 -31 39 -31
25z"/>
<path d="M7620 980 c0 -5 5 -10 10 -10 6 0 10 5 10 10 0 6 -4 10 -10 10 -5 0
-10 -4 -10 -10z"/>
<path d="M7680 981 c0 -5 5 -13 10 -16 6 -3 10 -2 10 4 0 5 -4 13 -10 16 -5 3
-10 2 -10 -4z"/>
<path d="M7720 975 c0 -8 4 -15 10 -15 5 0 7 7 4 15 -4 8 -8 15 -10 15 -2 0
-4 -7 -4 -15z"/>
<path d="M2736 967 c3 -10 9 -15 12 -12 3 3 0 11 -7 18 -10 9 -11 8 -5 -6z"/>
<path d="M2840 970 c0 -5 5 -10 11 -10 5 0 7 5 4 10 -3 6 -8 10 -11 10 -2 0
-4 -4 -4 -10z"/>
<path d="M7176 964 c-4 -9 -4 -19 -1 -22 3 -3 5 0 5 6 0 7 7 12 15 12 8 0 15
5 15 10 0 16 -27 11 -34 -6z"/>
<path d="M7490 970 c-13 -8 -12 -10 3 -10 9 0 17 5 17 10 0 12 -1 12 -20 0z"/>
<path d="M3220 961 c0 -5 5 -13 10 -16 6 -3 10 -2 10 4 0 5 -4 13 -10 16 -5 3
-10 2 -10 -4z"/>
<path d="M6170 965 c0 -2 10 -15 23 -28 12 -14 30 -35 39 -48 11 -16 10 -8 -5
22 -12 26 -25 45 -29 42 -5 -2 -8 1 -8 6 0 6 -4 11 -10 11 -5 0 -10 -2 -10 -5z"/>
<path d="M6640 962 c0 -6 5 -14 10 -17 16 -10 12 -23 -7 -27 -10 -2 -13 -6 -8
-9 6 -3 20 -1 32 6 l21 11 -24 23 c-13 13 -24 18 -24 13z"/>
<path d="M6700 955 c-14 -16 -10 -18 14 -9 9 3 16 10 16 15 0 14 -16 11 -30
-6z"/>
<path d="M6960 956 c0 -8 7 -16 15 -20 13 -4 14 -2 5 14 -13 23 -20 26 -20 6z"/>
<path d="M3116 943 c-6 -14 -5 -15 5 -6 7 7 10 15 7 18 -3 3 -9 -2 -12 -12z"/>
<path d="M5400 950 c0 -19 -3 -25 -19 -37 -15 -11 -15 -12 1 -13 9 0 18 6 20
12 3 9 10 8 23 -5 14 -14 20 -16 26 -6 6 10 12 9 28 -5 12 -11 21 -14 21 -8 0
7 -4 12 -10 12 -14 0 -12 28 3 33 7 2 8 8 3 13 -5 5 -11 4 -13 -3 -5 -15 -33
-17 -33 -3 0 6 -5 10 -11 10 -8 0 -7 -5 1 -15 7 -9 10 -18 7 -21 -9 -10 -34
19 -29 34 2 6 -1 12 -7 12 -6 0 -11 -4 -11 -10z"/>
<path d="M6360 949 c0 -6 -7 -9 -15 -5 -18 6 -20 -5 -3 -22 6 -6 8 -15 4 -19
-4 -4 -11 -1 -15 6 -11 16 -31 6 -31 -16 0 -12 3 -13 14 -4 11 10 17 8 25 -6
10 -17 10 -17 11 0 0 10 4 16 9 12 5 -3 12 -1 16 5 3 5 1 10 -4 10 -6 0 -11 7
-11 15 0 22 6 19 45 -22 19 -21 34 -33 34 -28 0 10 -65 85 -74 85 -3 0 -5 -5
-5 -11z"/>
<path d="M7215 950 c-3 -5 -1 -10 4 -10 6 0 11 5 11 10 0 6 -2 10 -4 10 -3 0
-8 -4 -11 -10z"/>
<path d="M7335 950 c3 -5 8 -10 11 -10 2 0 4 5 4 10 0 6 -5 10 -11 10 -5 0 -7
-4 -4 -10z"/>
<path d="M2910 940 c-9 -6 -10 -10 -3 -10 6 0 15 5 18 10 8 12 4 12 -15 0z"/>
<path d="M3462 934 c-12 -8 -22 -20 -22 -25 0 -5 10 -1 22 11 20 18 23 19 40
3 21 -19 25 -8 4 13 -18 17 -17 17 -44 -2z"/>
<path d="M3590 940 c0 -5 5 -10 10 -10 6 0 10 5 10 10 0 6 -4 10 -10 10 -5 0
-10 -4 -10 -10z"/>
<path d="M4225 940 c-3 -5 1 -10 10 -10 11 0 15 -5 11 -15 -3 -8 -2 -15 3 -15
5 0 14 7 21 15 7 8 20 15 28 15 13 0 14 2 3 13 -10 10 -15 8 -26 -7 -13 -17
-15 -17 -21 -3 -7 19 -20 22 -29 7z"/>
<path d="M5060 941 c0 -6 -7 -11 -15 -11 -16 0 -20 -16 -6 -24 4 -3 16 3 25
13 11 13 14 21 7 26 -6 3 -11 1 -11 -4z"/>
<path d="M5880 938 c0 -9 -6 -18 -12 -21 -8 -2 -9 -8 -4 -13 5 -5 11 -4 13 4
3 6 9 12 14 12 14 0 11 -28 -3 -33 -7 -2 -9 -8 -5 -13 5 -5 13 -1 18 9 6 9 17
17 24 17 8 0 15 5 15 11 0 6 -6 9 -12 7 -7 -3 -20 5 -30 16 -15 18 -17 18 -18
4z"/>
<path d="M6238 944 c-8 -11 28 -62 37 -53 3 4 0 13 -8 20 -8 8 -16 21 -19 29
-2 8 -7 10 -10 4z"/>
<path d="M6615 940 c3 -5 8 -10 11 -10 2 0 4 5 4 10 0 6 -5 10 -11 10 -5 0 -7
-4 -4 -10z"/>
<path d="M6935 940 c3 -5 8 -10 11 -10 2 0 4 5 4 10 0 6 -5 10 -11 10 -5 0 -7
-4 -4 -10z"/>
<path d="M7090 940 c0 -5 5 -10 10 -10 6 0 10 5 10 10 0 6 -4 10 -10 10 -5 0
-10 -4 -10 -10z"/>
<path d="M7140 940 c0 -5 5 -10 10 -10 6 0 10 5 10 10 0 6 -4 10 -10 10 -5 0
-10 -4 -10 -10z"/>
<path d="M2940 936 c0 -2 7 -7 16 -10 8 -3 12 -2 9 4 -6 10 -25 14 -25 6z"/>
<path d="M3155 930 c3 -5 8 -10 11 -10 2 0 4 5 4 10 0 6 -5 10 -11 10 -5 0 -7
-4 -4 -10z"/>
<path d="M3855 930 c4 -6 11 -8 16 -5 14 9 11 15 -7 15 -8 0 -12 -5 -9 -10z"/>
<path d="M3910 930 c0 -5 6 -10 14 -10 8 0 17 -7 20 -16 4 -9 9 -14 13 -10 7
7 -25 46 -39 46 -4 0 -8 -4 -8 -10z"/>
<path d="M4060 930 c0 -5 5 -10 11 -10 5 0 7 5 4 10 -3 6 -8 10 -11 10 -2 0
-4 -4 -4 -10z"/>
<path d="M4842 913 c-13 -14 -21 -28 -17 -31 3 -4 9 -2 13 3 4 6 15 16 24 24
16 12 21 10 42 -10 18 -17 22 -27 14 -36 -14 -18 0 -16 18 1 17 17 18 26 4 26
-6 0 -21 11 -34 25 -28 30 -34 30 -64 -2z"/>
<path d="M5692 920 c-10 -17 -10 -23 2 -35 9 -10 17 -11 21 -5 3 5 1 10 -4 10
-6 0 -11 7 -11 15 0 8 5 15 10 15 6 0 10 5 10 10 0 17 -14 11 -28 -10z"/>
<path d="M6531 931 c-8 -5 -9 -11 -3 -15 5 -3 15 1 22 9 14 16 3 20 -19 6z"/>
<path d="M6720 930 c0 -5 7 -10 16 -10 8 0 12 5 9 10 -3 6 -10 10 -16 10 -5 0
-9 -4 -9 -10z"/>
<path d="M7000 933 c0 -6 8 -17 18 -24 16 -13 16 -13 2 6 -8 11 -16 22 -17 24
-2 2 -3 0 -3 -6z"/>
<path d="M7186 923 c-6 -14 -5 -15 5 -6 7 7 10 15 7 18 -3 3 -9 -2 -12 -12z"/>
<path d="M7250 930 c0 -5 5 -10 11 -10 5 0 7 5 4 10 -3 6 -8 10 -11 10 -2 0
-4 -4 -4 -10z"/>
<path d="M3565 920 c-3 -5 -1 -10 4 -10 6 0 11 5 11 10 0 6 -2 10 -4 10 -3 0
-8 -4 -11 -10z"/>
<path d="M3620 920 c0 -5 5 -10 10 -10 6 0 10 5 10 10 0 6 -4 10 -10 10 -5 0
-10 -4 -10 -10z"/>
<path d="M4726 914 c-4 -10 7 -27 31 -50 21 -18 42 -34 47 -34 5 0 -10 18 -35
40 -24 22 -38 40 -31 40 6 0 12 5 12 10 0 16 -17 12 -24 -6z"/>
<path d="M3330 910 c0 -5 5 -10 11 -10 5 0 7 5 4 10 -3 6 -8 10 -11 10 -2 0
-4 -4 -4 -10z"/>
<path d="M3880 914 c0 -3 7 -12 15 -20 13 -13 15 -13 15 -1 0 8 -7 17 -15 21
-8 3 -15 3 -15 0z"/>
<path d="M3985 910 c-3 -5 1 -10 9 -10 9 0 16 5 16 10 0 6 -4 10 -9 10 -6 0
-13 -4 -16 -10z"/>
<path d="M4040 904 c0 -8 5 -12 10 -9 6 4 8 11 5 16 -9 14 -15 11 -15 -7z"/>
<path d="M4193 905 c-18 -20 -16 -30 3 -14 13 10 17 10 25 -2 10 -16 12 -8 3
15 -7 19 -15 20 -31 1z"/>
<path d="M5073 905 c-7 -8 -9 -16 -4 -20 5 -3 11 0 13 7 3 8 18 2 44 -17 l39
-28 -38 36 c-44 42 -38 40 -54 22z"/>
<path d="M5135 910 c-3 -5 1 -10 9 -10 8 0 19 -8 25 -17 5 -10 12 -15 16 -11
4 3 -3 16 -14 27 -24 24 -27 25 -36 11z"/>
<path d="M5251 904 c-7 -8 -10 -18 -6 -22 4 -4 10 -1 12 6 3 6 11 12 19 12 9
0 12 5 9 10 -8 14 -18 12 -34 -6z"/>
<path d="M5320 910 c0 -5 5 -10 10 -10 6 0 10 5 10 10 0 6 -4 10 -10 10 -5 0
-10 -4 -10 -10z"/>
<path d="M6552 904 c-14 -16 -5 -18 17 -5 7 5 9 11 5 14 -5 3 -15 -1 -22 -9z"/>
<path d="M6955 910 c3 -5 14 -10 23 -10 15 0 15 2 2 10 -20 13 -33 13 -25 0z"/>
<path d="M7058 913 c7 -3 16 -2 19 1 4 3 -2 6 -13 5 -11 0 -14 -3 -6 -6z"/>
<path d="M3655 900 c3 -5 8 -10 11 -10 2 0 4 5 4 10 0 6 -5 10 -11 10 -5 0 -7
-4 -4 -10z"/>
<path d="M4135 900 c3 -5 8 -10 11 -10 2 0 4 5 4 10 0 6 -5 10 -11 10 -5 0 -7
-4 -4 -10z"/>
<path d="M5796 893 c-6 -14 -5 -15 5 -6 7 7 10 15 7 18 -3 3 -9 -2 -12 -12z"/>
<path d="M6600 901 c0 -5 7 -11 14 -14 10 -4 13 -1 9 9 -6 15 -23 19 -23 5z"/>
<path d="M6690 900 c0 -5 7 -7 15 -4 8 4 15 8 15 10 0 2 -7 4 -15 4 -8 0 -15
-4 -15 -10z"/>
<path d="M6750 900 c0 -5 5 -10 10 -10 6 0 10 5 10 10 0 6 -4 10 -10 10 -5 0
-10 -4 -10 -10z"/>
<path d="M3725 890 c3 -5 8 -10 11 -10 2 0 4 5 4 10 0 6 -5 10 -11 10 -5 0 -7
-4 -4 -10z"/>
<path d="M3840 896 c0 -2 7 -7 16 -10 8 -3 12 -2 9 4 -6 10 -25 14 -25 6z"/>
<path d="M4877 894 c-3 -5 1 -15 9 -22 16 -14 18 -5 5 17 -5 7 -11 9 -14 5z"/>
<path d="M5345 890 c-3 -5 -1 -10 4 -10 6 0 11 5 11 10 0 6 -2 10 -4 10 -3 0
-8 -4 -11 -10z"/>
<path d="M5526 888 c4 -6 -1 -17 -11 -25 -11 -7 -15 -13 -9 -13 5 0 17 7 28
15 18 13 15 35 -5 35 -6 0 -7 -5 -3 -12z"/>
<path d="M5840 894 c0 -5 7 -18 15 -28 8 -11 15 -16 15 -10 0 5 -7 18 -15 28
-8 11 -15 16 -15 10z"/>
<path d="M6045 890 c-3 -5 -2 -10 4 -10 5 0 13 5 16 10 3 6 2 10 -4 10 -5 0
-13 -4 -16 -10z"/>
<path d="M6660 890 c0 -5 5 -10 11 -10 5 0 7 5 4 10 -3 6 -8 10 -11 10 -2 0
-4 -4 -4 -10z"/>
<path d="M3920 880 c0 -5 5 -10 10 -10 6 0 10 5 10 10 0 6 -4 10 -10 10 -5 0
-10 -4 -10 -10z"/>
<path d="M4005 880 c-3 -6 1 -7 9 -4 18 7 21 14 7 14 -6 0 -13 -4 -16 -10z"/>
<path d="M4105 879 c-11 -17 1 -21 15 -4 8 9 8 15 2 15 -6 0 -14 -5 -17 -11z"/>
<path d="M4388 883 c7 -3 16 -2 19 1 4 3 -2 6 -13 5 -11 0 -14 -3 -6 -6z"/>
<path d="M4640 881 c0 -5 5 -13 10 -16 6 -3 10 -2 10 4 0 5 -4 13 -10 16 -5 3
-10 2 -10 -4z"/>
<path d="M4690 880 c-8 -5 -11 -12 -7 -16 4 -4 13 -2 19 4 15 15 7 24 -12 12z"/>
<path d="M4980 881 c0 -5 7 -11 14 -14 10 -4 13 -1 9 9 -6 15 -23 19 -23 5z"/>
<path d="M6175 870 c10 -11 20 -20 23 -20 3 0 -3 9 -13 20 -10 11 -20 20 -23
20 -3 0 3 -9 13 -20z"/>
<path d="M4055 870 c-3 -5 -1 -10 4 -10 6 0 11 5 11 10 0 6 -2 10 -4 10 -3 0
-8 -4 -11 -10z"/>
<path d="M4812 864 c10 -10 20 -16 22 -13 3 3 -5 11 -17 18 -21 13 -21 12 -5
-5z"/>
<path d="M5040 869 c0 -5 5 -7 10 -4 6 3 10 8 10 11 0 2 -4 4 -10 4 -5 0 -10
-5 -10 -11z"/>
<path d="M5460 869 c0 -5 5 -7 10 -4 6 3 10 8 10 11 0 2 -4 4 -10 4 -5 0 -10
-5 -10 -11z"/>
<path d="M5670 870 c0 -5 5 -10 11 -10 5 0 7 5 4 10 -3 6 -8 10 -11 10 -2 0
-4 -4 -4 -10z"/>
<path d="M5735 871 c-3 -5 -1 -12 5 -16 5 -3 10 1 10 9 0 18 -6 21 -15 7z"/>
<path d="M6528 873 c7 -3 16 -2 19 1 4 3 -2 6 -13 5 -11 0 -14 -3 -6 -6z"/>
<path d="M4555 860 c3 -5 8 -10 11 -10 2 0 4 5 4 10 0 6 -5 10 -11 10 -5 0 -7
-4 -4 -10z"/>
<path d="M4620 860 c0 -5 5 -10 11 -10 5 0 7 5 4 10 -3 6 -8 10 -11 10 -2 0
-4 -4 -4 -10z"/>
<path d="M5080 859 c0 -5 5 -7 10 -4 6 3 10 8 10 11 0 2 -4 4 -10 4 -5 0 -10
-5 -10 -11z"/>
<path d="M5260 860 c0 -5 5 -10 10 -10 6 0 10 5 10 10 0 6 -4 10 -10 10 -5 0
-10 -4 -10 -10z"/>
<path d="M5375 860 c4 -6 11 -8 16 -5 14 9 11 15 -7 15 -8 0 -12 -5 -9 -10z"/>
<path d="M5965 850 c3 -5 8 -10 11 -10 2 0 4 5 4 10 0 6 -5 10 -11 10 -5 0 -7
-4 -4 -10z"/>
<path d="M5235 830 c3 -5 8 -10 11 -10 2 0 4 5 4 10 0 6 -5 10 -11 10 -5 0 -7
-4 -4 -10z"/>
<path d="M5290 829 c0 -5 5 -7 10 -4 6 3 10 8 10 11 0 2 -4 4 -10 4 -5 0 -10
-5 -10 -11z"/>
</g>
</svg>
